<?xml version="1.0" encoding="utf-8" ?>
<svg xmlns="http://www.w3.org/2000/svg" xmlns:xlink="http://www.w3.org/1999/xlink" width="349" height="398">
	<path fill="none" d="M0 16.0926L-0 -0L349 0L349 10.613L349 398L-0 398L0 16.0926ZM0 16.0926C1.27979 14.36 2.46957 13.2634 4.2022 12.0037L4.22822 11.9182C5.3133 10.9573 6.05262 10.5605 7.52229 10.4417C12.286 10.0566 17.3022 10.4744 22.0975 10.4832L51.6271 10.4171L145.425 10.3182L349 10.613L349 0L-0 -0L0 16.0926Z"/>
	<path fill="#8322BD" d="M109.829 237.405L110.204 235.748C110.917 235.338 111.341 235.482 112.125 235.546C112.236 235.891 112.204 236.063 112.13 236.401C111.881 237.533 112.132 238.708 111.766 239.812C111.442 239.54 111.109 239.342 110.745 239.128C110.542 238.532 110.31 238.075 109.943 237.561L109.829 237.405Z"/>
	<path fill="#E2D1E2" d="M343.502 184.819L344.526 184.514L343.84 193.019C343.64 193.286 343.223 193.986 342.949 194.111L343.502 184.819Z"/>
	<path fill="#D9D5E2" d="M9.09483 74.8013C9.4107 76.3028 9.37158 77.9542 9.4539 79.4896L9.8212 87.5994C9.8508 88.5267 10.1302 90.066 9.93916 90.9203C9.52252 91.564 9.45668 92.0673 9.3719 92.8218C8.94586 91.1501 9.26549 89.0164 9.15841 87.2699C8.91013 83.2202 8.32379 79.2071 8.22145 75.1322L8.75 75.3725L9.09483 74.8013Z"/>
	<path fill="#9B3FC9" d="M100.157 235.542C101.069 235.536 101.86 235.373 102.658 235.842C102.949 237.322 102.693 239.681 103.287 240.961L103.672 241.589L103.856 241.615C104.185 241.67 104.488 241.773 104.805 241.875L105.028 242.735C104.545 242.963 104.117 243.128 103.596 243.244C102.831 243.005 102.234 243.196 101.536 242.65L101.535 242.311C101.501 240.768 101.074 237.254 99.9934 236.24L100.157 235.542Z"/>
	<path fill="#8E28BA" d="M65.3104 166.974L72.7369 167.099L72.7844 168.236L72.625 169.19C69.796 169.428 66.3027 169.532 63.4921 169.17C63.8511 169.013 64.286 168.975 64.6717 168.902C64.7944 168.261 64.9437 167.724 65.2301 167.135L65.3104 166.974Z"/>
	<path fill="#B868DF" d="M101.784 326.729C101.759 326.163 101.715 326.063 102.026 325.566C107.782 324.784 114.31 325.107 120.126 325.287L115.368 325.573C114.992 325.59 114.019 325.515 113.705 325.645C113.565 325.703 113.166 326.272 113.041 326.418C112.439 326.405 111.451 326.24 110.945 326.503C110.35 326.813 109.225 326.747 108.534 326.786C106.498 326.901 103.709 327.438 101.784 326.729Z"/>
	<path fill="#9B3FC9" d="M63.4921 169.17L63.0458 168.75L63.0099 161.784C63.0212 160.986 62.8711 160.085 63.375 159.425C64.1587 159.46 64.5946 159.362 65.2365 159.875C65.5163 162.189 65.4676 164.652 65.3104 166.974L65.2301 167.135C64.9437 167.724 64.7944 168.261 64.6717 168.902C64.286 168.975 63.8511 169.013 63.4921 169.17Z"/>
	<path fill="#8E28BA" d="M91.9805 236.209C93.6048 234.822 98.0213 235.399 100.157 235.542L99.9934 236.24L99.9071 236.403C99.6285 236.942 99.4769 237.399 99.375 237.996C98.8687 238.032 98.514 238.007 98.0281 237.855C96.963 237.522 95.6171 237.602 94.5 237.569L94.2828 237.75L94.742 238.188L94.1891 238.527L94.8899 239.471C93.6163 239.469 92.6815 239.728 91.6805 238.875C91.5268 238.022 91.8237 237.054 91.9805 236.209Z"/>
	<path fill="#8E28BA" d="M82.9966 236.238C84.9192 234.945 88.3122 235.452 90.6178 235.462L91.0374 236.031L90.8436 237.809C90.1573 238.177 89.5494 238.038 88.8047 237.845C87.9848 237.632 87.0935 237.621 86.25 237.564L86.0487 237.751L86.271 238.216L85.8972 238.872L86.2045 239.313L86.1629 239.481C84.7391 239.489 84.2579 239.701 83.125 238.787C82.8446 237.943 82.9474 237.113 82.9966 236.238Z"/>
	<path fill="#D4BEE6" d="M14.9351 172.286L16.8688 203.552L16.2076 204.616L14.4877 174.791C14.5274 173.913 14.5081 173.082 14.9351 172.286Z"/>
	<path fill="#8E28BA" d="M95.6973 162.078C97.7005 162.049 99.6847 161.968 101.667 162.31C102.774 164.739 102.762 166.813 102.701 169.409L100.315 169.158C99.769 168.143 100.125 165.997 99.9627 164.791L99.6899 164.133C98.7869 164.18 97.8988 164.093 97 164.018L96.6047 164.446L96.5917 164.451C96.2855 163.243 96.1703 163.94 95.3419 163.25L95.6973 162.078Z"/>
	<path fill="#E2D1E2" d="M99.9934 236.24C101.074 237.254 101.501 240.768 101.535 242.311L101.536 242.65L101 242.301C100.652 242.509 100.312 242.6 100.171 242.984C100.073 243.251 100.023 243.327 99.8125 243.499C99.3809 243.24 99.1164 243.339 98.6225 243.375C97.6262 244.037 93.6755 243.624 92.3173 243.625C91.805 243.625 91.3761 243.5 91 243.873C90.4252 243.489 90.3363 243.372 89.6225 243.375C88.683 243.999 85.2629 243.641 84.0188 243.64C83.4094 243.639 82.4508 243.767 81.875 243.623C80.3839 243.247 78.4559 243.703 77.0945 243.061C78.7299 243.056 80.6477 243.251 82.2454 242.967L82.7885 242.997L90.4061 242.91L91.7845 242.944C93.5015 243.053 95.2226 243.031 96.942 243.007C97.5002 242.999 98.3567 243.09 98.8748 242.882C99.3222 242.703 99.5372 242.269 99.6536 241.824C99.885 240.94 99.8378 239.693 99.375 238.929C98.3084 238.94 97.2841 238.859 96.2606 238.546C95.7528 238.391 95.265 238.278 94.742 238.188L94.2828 237.75L94.5 237.569C95.6171 237.602 96.963 237.522 98.0281 237.855C98.514 238.007 98.8687 238.032 99.375 237.996C99.4769 237.399 99.6285 236.942 99.9071 236.403L99.9934 236.24Z"/>
	<path fill="#D4C7E4" d="M340.287 236.599C340.472 236.703 340.652 236.798 340.819 236.929L339.663 261.978C339.514 264.336 339.783 267.098 339.254 269.381C339.029 268.444 339.129 267.508 338.938 266.624C338.761 265.809 338.703 265.257 338.71 264.399L340.287 236.599Z"/>
	<path fill="#D4C7E4" d="M343.502 184.819L345.618 149.25L345.811 149.25C345.629 149.954 345.944 150.812 346.016 151.524C346.11 152.465 346.021 153.489 346.008 154.435L344.526 184.514L343.502 184.819Z"/>
	<path fill="#D4C7E4" d="M8.22145 75.1322L6.58903 43.0012L6.75 43.125L7 48.25L7.1275 48.125C7.29012 47.3816 7.45677 45.8474 7.16016 45.1553C6.83041 44.3859 7.02221 43.1802 7.0625 42.3441C7.85582 45.6907 7.6586 49.8557 7.84296 53.303L9.09483 74.8013L8.75 75.3725L8.22145 75.1322Z"/>
	<defs>
		<linearGradient id="gradient_0" gradientUnits="userSpaceOnUse" x1="16.162901" y1="161.668" x2="11.8371" y2="164.332">
			<stop offset="0" stop-color="#DACDE6"/>
			<stop offset="1" stop-color="#E4E9E9"/>
		</linearGradient>
	</defs>
	<path fill="url(#gradient_0)" d="M12.1892 141.66L12.3875 141.267C12.5486 141.681 12.6686 141.743 12.5264 142.181L13.0409 143.567L14.5621 163.875L14.9183 169.66C14.9582 170.501 15.1093 171.473 14.9351 172.286C14.5081 173.082 14.5274 173.913 14.4877 174.791C14.3121 174.205 14.1541 173.518 14.214 172.907C14.2553 172.485 14.2764 172.755 14.1926 172.306C14.0036 171.293 14.3851 169.92 14.1275 169L13.3775 166.625C13.1408 165.77 13.4356 163.958 13.4377 163.011L13.2044 156.063L12.1892 141.66Z"/>
	<path fill="#8322BD" d="M82.0463 236.046L82.9966 236.238C82.9474 237.113 82.8446 237.943 83.125 238.787C84.2579 239.701 84.7391 239.489 86.1629 239.481L86.2045 239.313L85.8972 238.872L86.271 238.216L90.625 239.189C91.0531 239.877 91.1113 240.686 90.9809 241.5C90.9122 241.929 90.6749 242.307 90.4947 242.693L90.4061 242.91L82.7885 242.997L82.2454 242.967C82.3721 240.45 82.5008 238.552 82.0463 236.046Z"/>
	<path fill="#CD99E6" d="M82.0463 236.046L82.9966 236.238C82.9474 237.113 82.8446 237.943 83.125 238.787C84.2579 239.701 84.7391 239.489 86.1629 239.481C87.48 239.73 88.6174 240.075 89.8445 240.616C87.711 240.926 85.2753 240.669 83.2421 241.125C82.8595 241.677 82.8601 242.347 82.7885 242.997L82.2454 242.967C82.3721 240.45 82.5008 238.552 82.0463 236.046Z"/>
	<path fill="#D9D5E2" d="M342.949 194.111C343.223 193.986 343.64 193.286 343.84 193.019L340.908 236.857L340.819 236.929C340.652 236.798 340.472 236.703 340.287 236.599C340.242 232.546 340.77 228.442 341.051 224.402L342.106 206.685L342.565 198.472C342.642 197.038 342.593 195.507 342.949 194.111Z"/>
	<path fill="#8322BD" d="M91.0374 236.031L91.5064 236.367L91.9805 236.209C91.8237 237.054 91.5268 238.022 91.6805 238.875C92.6815 239.728 93.6163 239.469 94.8899 239.471L94.1891 238.527L94.742 238.188C95.265 238.278 95.7528 238.391 96.2606 238.546C97.2841 238.859 98.3084 238.94 99.375 238.929C99.8378 239.693 99.885 240.94 99.6536 241.824C99.5372 242.269 99.3222 242.703 98.8748 242.882C98.3567 243.09 97.5002 242.999 96.942 243.007C95.2226 243.031 93.5015 243.053 91.7845 242.944L90.4061 242.91L90.4947 242.693C90.6749 242.307 90.9122 241.929 90.9809 241.5C91.1113 240.686 91.0531 239.877 90.625 239.189L86.271 238.216L86.0487 237.751L86.25 237.564C87.0935 237.621 87.9848 237.632 88.8047 237.845C89.5494 238.038 90.1573 238.177 90.8436 237.809L91.0374 236.031Z"/>
	<path fill="#CD99E6" d="M91.0374 236.031L91.5064 236.367L91.9805 236.209C91.8237 237.054 91.5268 238.022 91.6805 238.875C92.6815 239.728 93.6163 239.469 94.8899 239.471C95.7661 239.683 96.4386 239.67 97.0344 240.375L96.75 240.746L92.125 241.038C91.6856 241.634 91.7704 242.241 91.7845 242.944L90.4061 242.91L90.4947 242.693C90.6749 242.307 90.9122 241.929 90.9809 241.5C91.1113 240.686 91.0531 239.877 90.625 239.189L86.271 238.216L86.0487 237.751L86.25 237.564C87.0935 237.621 87.9848 237.632 88.8047 237.845C89.5494 238.038 90.1573 238.177 90.8436 237.809L91.0374 236.031Z"/>
	<path fill="#D4C7E4" d="M9.3719 92.8218C9.45668 92.0673 9.52252 91.564 9.93916 90.9203L13.0409 143.567L12.5264 142.181C12.6686 141.743 12.5486 141.681 12.3875 141.267L12.1892 141.66L12.119 141.603L9.3719 92.8218Z"/>
	<path fill="#8E28BA" d="M103.287 240.961C103.983 240.395 103.83 238.956 104.167 238.076C104.532 237.122 104.394 236.151 105.125 235.414C110.203 235.507 106.677 237.152 109.243 239.125L109.625 238.949L109.829 237.405L109.943 237.561C110.31 238.075 110.542 238.532 110.745 239.128C111.109 239.342 111.442 239.54 111.766 239.812L111.714 239.949C111.385 240.895 111.419 241.959 111.375 242.951C110.737 243.274 109.901 243.212 109.196 243.239C108.619 243.419 108.399 243.589 107.822 243.375C107.06 243.642 105.822 243.803 105.051 243.503C104.622 243.336 104.284 243.305 103.826 243.264L103.596 243.244C104.117 243.128 104.545 242.963 105.028 242.735L104.805 241.875C104.488 241.773 104.185 241.67 103.856 241.615L103.672 241.589L103.287 240.961Z"/>
	<path fill="#E2D1E2" d="M105.028 242.735L105.796 240.608C106.143 239.762 106.214 238.835 106.527 237.967C106.721 239.575 106.724 241.812 108.017 242.933L109.196 243.239C108.619 243.419 108.399 243.589 107.822 243.375C107.06 243.642 105.822 243.803 105.051 243.503C104.622 243.336 104.284 243.305 103.826 243.264L103.596 243.244C104.117 243.128 104.545 242.963 105.028 242.735Z"/>
	<path fill="#E2D1E2" d="M335.309 319.357L338.71 264.399C338.703 265.257 338.761 265.809 338.938 266.624C339.129 267.508 339.029 268.444 339.254 269.381L335.836 320.528L335.627 319.5L335.309 319.357Z"/>
	<path fill="#E2D1E2" d="M4.2022 12.0037L4.22822 11.9182C5.3133 10.9573 6.05262 10.5605 7.52229 10.4417C12.286 10.0566 17.3022 10.4744 22.0975 10.4832L51.6271 10.4171L145.425 10.3182C144.993 10.7327 144.788 10.616 144.198 10.6183L55.2371 10.6516L10.4223 10.7494C9.88222 10.757 6.20033 10.885 5.98237 11.1802C5.79732 11.4308 5.82096 13.1933 5.81278 13.5383L6.21472 26.125L6 26L5.75 18.875C5.57038 19.0511 5.50013 19.3684 5.5 19.625L5.56125 20.25L5.5 25.875L5.35706 25.875L4.72445 14.3628C4.66989 13.8259 4.78667 13.0284 4.65879 12.5362C4.63124 12.4301 4.29089 12.1071 4.2022 12.0037Z"/>
	<path fill="#9B3FC9" d="M83.9951 168.737C83.4905 168.486 83.0709 168.226 82.625 167.881C82.3527 166.941 82.1976 165.898 82.277 164.919C82.357 163.93 82.4752 162.877 83.25 162.227C84.7903 162.07 88.9654 161.545 90.1799 162.314L90.2406 164.035L90.3065 168.378L87.8184 169.806L87.7517 169.061C86.4713 169.033 85.2537 168.986 83.9951 168.737Z"/>
	<path fill="#8E28BA" d="M85.0368 166.972L88.0211 167.612C88.0032 168.147 88.1215 168.659 87.7517 169.061C86.4713 169.033 85.2537 168.986 83.9951 168.737L84.3491 168.022C84.776 167.79 84.8394 167.404 85.0368 166.972Z"/>
	<path fill="#D4BEE6" d="M85.0368 166.972C84.528 166.166 84.1373 165.628 84.2478 164.625C85.1144 163.956 86.8746 164.157 87.9967 164.114C88.0911 165.305 88.1592 166.421 88.0211 167.612L85.0368 166.972Z"/>
	<path fill="#8322BD" d="M74.52 236.583C74.7651 236.155 75.0383 235.841 75.375 235.488C77.1302 235.46 80.705 235.061 82.0463 236.046C82.5008 238.552 82.3721 240.45 82.2454 242.967C80.6477 243.251 78.7299 243.056 77.0945 243.061L75.625 242.85C75.0028 242.208 74.6692 241.566 74.6969 240.639C74.7307 239.507 75.1583 239.026 75.9807 238.267L76.125 238.137L75.9988 237.784L75.0408 237.487L74.52 236.583Z"/>
	<path fill="#CD99E6" d="M77.1036 239.625C77.3928 239.557 77.2817 239.569 77.5759 239.556C78.458 239.518 79.3808 239.262 80.0373 239.875L79.875 240.785C79.6592 240.901 79.6395 240.929 79.3594 240.978C78.6136 241.109 77.6621 240.879 77.0688 240.47L77.1036 239.625Z"/>
	<path fill="#9B3FC9" d="M72.7369 167.099L72.8555 166.879C73.5503 165.425 72.0816 163.417 74.25 162.231C76.0662 161.918 78.8862 161.752 80.6275 162.375C81.7033 163.574 81.2481 167.369 81.2223 168.923C79.7329 169.194 75.4371 169.846 74.1994 168.894C73.8582 168.631 73.6132 168.197 73.375 167.842C72.9629 167.929 73.0327 167.938 72.7844 168.236L72.7369 167.099Z"/>
	<path fill="#D4BEE6" d="M75.2405 164.375C75.6093 164.203 75.8829 164.182 76.2828 164.18C77.2818 164.177 78.6083 163.922 79.3208 164.625C79.4984 165.51 79.455 165.995 79.125 166.835C78.9123 166.943 78.7387 167.041 78.4961 167.066C77.5602 167.163 75.8509 167.205 75.1611 166.625C75.0684 165.818 74.9872 165.17 75.2405 164.375Z"/>
	<path fill="#9B3FC9" d="M114.717 235.518C115.917 235.398 117.876 235.188 119.024 235.534C119.687 235.733 120.574 236.201 120.877 236.857C121.402 237.992 121.368 240.639 120.902 241.737C120.552 242.561 120.157 242.752 119.375 243.058C117.98 243.182 116.228 243.195 114.841 242.977C114.176 242.873 113.482 242.28 113.139 241.724C112.582 240.821 112.588 238.692 112.819 237.682C113.083 236.529 113.764 236.063 114.717 235.518Z"/>
	<path fill="#D4C7E4" d="M115.955 237.625C116.923 237.45 118.116 237.523 118.931 238.06C119.025 238.397 119.142 238.774 119.15 239.125C119.171 240.012 118.943 240.289 118.369 240.875L117.978 240.97C116.973 241.12 116.151 241.07 115.375 240.448C115.185 239.798 114.99 239.227 115.125 238.542C115.235 237.983 115.503 237.935 115.955 237.625Z"/>
	<path fill="#D4C7E4" d="M335.309 319.357L335.627 319.5L335.836 320.528L331.742 389.875L331.375 390.099C330.451 388.056 332.214 370.628 332.457 366.945L334.169 339.487L335.309 319.357Z"/>
	<path fill="#D4BEE6" d="M21.9507 300.174L22.6226 299.792L26.6599 363.208L28.0528 384.949C28.1505 385.862 28.7513 389.601 28.3031 390.125C27.7926 389.677 27.7782 388.829 27.6591 388.186C26.6695 382.842 26.6794 376.942 26.3903 371.519L25.2434 355.367L24.9493 344.426L21.9507 300.174Z"/>
	<path fill="#9B3FC9" d="M75.0408 237.487L74.6988 237.645C74.4107 238.837 74.0299 239.85 72.994 240.585C71.8513 241.395 68.576 241.237 67.2035 241.012C66.877 240.958 67.0783 240.936 66.6891 241.125L66.715 242.875C65.9331 243.278 64.9341 243.047 64.0582 243.002L64.0415 233.454L70.3778 233.418C71.1423 233.432 72.256 233.336 72.9449 233.643C74.1979 234.201 74.0064 235.503 74.52 236.583L75.0408 237.487Z"/>
	<path fill="#D4C7E4" d="M67.4295 235.875C68.5859 235.987 69.7168 235.733 70.875 235.711C71.031 235.872 71.2065 236.033 71.2865 236.25C71.5697 237.02 71.5049 237.345 71.125 237.996C70.1684 238.112 67.6676 238.236 66.875 237.724C66.6135 237.157 66.6661 236.853 66.7872 236.25L67.4295 235.875Z"/>
	<path fill="#D4C7E4" d="M16.8688 203.552L22.6226 299.792L21.9507 300.174C21.526 298.638 21.5548 296.698 21.5067 295.096L21.2139 287.906L20.2559 274.918L19.536 258.414C18.5514 240.51 16.31 222.559 16.2076 204.616L16.8688 203.552Z"/>
	<path fill="#E2D1E2" d="M93.3247 162.001C94.0051 162.182 94.074 162.233 94.7667 161.978L95.6973 162.078L95.3419 163.25C96.1703 163.94 96.2855 163.243 96.5917 164.451L96.6047 164.446L97 164.018C97.8988 164.093 98.7869 164.18 99.6899 164.133L99.9627 164.791L99.1246 164.858L98.8725 164.625L98.625 164.873L98.375 164.5L97.8725 164.625L97.7488 164.999L97.2488 164.999C97.1388 165.441 97.0882 165.634 97.2488 166.062C97.5496 166.865 97.469 168.922 97.2488 169.749L96.5 170.123L96.25 169.998C95.8164 169.797 95.3395 169.852 94.875 169.873C94.6332 169.711 94.591 169.586 94.2884 169.662C93.9259 169.754 93.6862 169.924 93.375 170.123L93.125 169.873L92.3725 169.875C92.146 170.177 92.0743 170.38 91.9988 170.749L91.625 170.873L91.4375 170.374C91.0982 170.455 90.9038 170.544 90.6225 170.75C90.7188 171.133 90.7242 171.227 91 171.5C91.4464 171.47 93.0646 170.866 93.1375 170.902C93.4564 171.061 93.8166 171.047 94.1653 171.062L93.9719 171.088C92.7171 171.278 91.6825 171.952 90.5036 172.375C90.1893 173.222 90.1403 173.585 89.25 173.963C88.091 174.455 85.0701 174.445 83.9427 173.875C83.4121 173.607 82.8646 173.053 82.7784 172.437L82.7804 172.212C82.3948 171.627 82.4455 171.183 82.4703 170.5C82.6052 170.348 82.6896 170.128 82.875 170.045C83.049 169.967 83.8649 170.037 84.0973 170.034C85.2748 170.021 86.4607 170.054 87.6235 169.845L87.8184 169.806L90.3065 168.378L90.2406 164.035L90.6833 163.803C90.7069 163.143 90.6557 162.63 91.1026 162.11L93.3247 162.001Z"/>
	<path fill="#8322BD" d="M94.7667 161.978L95.6973 162.078L95.3419 163.25C96.1703 163.94 96.2855 163.243 96.5917 164.451L96.6047 164.446L96.7277 169.125C96.1547 169.456 95.5559 169.376 94.9154 169.164C94.7368 169.105 94.6735 169.046 94.537 168.945C94.9477 166.82 94.6359 164.177 94.7667 161.978Z"/>
	<path fill="#8E28BA" d="M87.8184 169.806L90.3065 168.378C90.3142 169.573 90.314 170.518 89.8218 171.625C87.8041 172.664 84.994 172.137 82.7804 172.212C82.3948 171.627 82.4455 171.183 82.4703 170.5C82.6052 170.348 82.6896 170.128 82.875 170.045C83.049 169.967 83.8649 170.037 84.0973 170.034C85.2748 170.021 86.4607 170.054 87.6235 169.845L87.8184 169.806Z"/>
	<path fill="#9B3FC9" d="M93.3247 162.001C94.0051 162.182 94.074 162.233 94.7667 161.978C94.6359 164.177 94.9477 166.82 94.537 168.945L94.3549 168.989C93.8577 169.113 93.5327 169.213 93.1283 169.529L92.4592 169.298C91.8695 169.295 91.5481 169.259 91.0319 168.965C90.4155 167.49 90.678 165.391 90.6833 163.803C90.7069 163.143 90.6557 162.63 91.1026 162.11L93.3247 162.001Z"/>
	<path fill="#CD99E6" d="M93.3247 162.001C94.0051 162.182 94.074 162.233 94.7667 161.978C94.6359 164.177 94.9477 166.82 94.537 168.945L94.3549 168.989C93.8577 169.113 93.5327 169.213 93.1283 169.529L92.4592 169.298L93.1748 169.15C93.6241 167.939 93.7805 163.174 93.3247 162.001Z"/>
	<path fill="#8E28BA" d="M136.755 232.875C137.184 232.85 137.579 232.946 138 233.021C138.764 234.29 138.278 241.231 138.269 243.128C136.797 243.183 132.585 243.508 131.501 242.618C129.842 241.257 130.056 239.436 129.89 237.509C129.126 237.963 128.687 238.556 127.784 238.669L127.356 238.003L127.245 237.809C126.224 237.672 125.164 237.534 124.304 238.125C124.27 239.434 124.563 242.062 123.875 243.095C123.27 243.11 122.844 243.064 122.267 242.875C122.013 241.761 121.906 237.359 122.325 236.335C122.438 236.058 122.905 235.907 123.164 235.791C124.418 235.227 128.347 235.145 129.636 235.612L129.853 237.246L130.125 237.331L130.875 236.474C132.212 235.166 133.792 235.422 135.5 235.461C136.091 234.921 135.981 234.068 136.066 233.284L136.755 232.875Z"/>
	<path fill="#E2D1E2" d="M132.984 240.239L133.128 239.54C133.609 239.488 134.244 239.418 134.672 239.194C135.182 238.927 135.458 238.924 136.019 238.942L135.915 240.941C135.348 241.35 135.059 241.211 134.375 241.092L133.357 240.866L132.984 240.239Z"/>
	<path fill="#D4C7E4" d="M132.984 240.239L132.602 239.375C132.705 238.541 132.668 238.223 133.25 237.581C134.055 237.598 135.211 237.45 135.875 237.941L136.019 238.942C135.458 238.924 135.182 238.927 134.672 239.194C134.244 239.418 133.609 239.488 133.128 239.54L132.984 240.239Z"/>
	<path fill="#D4C7E4" d="M31.8649 390.37L112.697 390.283L251.25 390.287L306.888 390.391L321.75 390.393C324.868 390.386 328.007 390.067 331.076 390.663C329.469 390.994 327.822 391.021 326.188 391.098L248.73 391.329L90.8268 391.315L35.5977 391.137L30.6599 391.098C30.2054 391.092 29.5432 391.178 29.1408 390.935C28.8594 390.766 28.9498 390.858 28.875 390.513L31.8649 390.37Z"/>
	<path fill="#8322BD" d="M120.126 325.287L214.407 324.752L241.493 324.872C247.044 324.942 252.739 324.794 258.24 325.609L256.349 342.512C255.722 347.222 255.271 352.447 253.624 356.918C251.036 357.79 248.108 357.75 245.402 357.776L236.127 357.834L216.899 357.953L173.317 358.042L149.677 357.977C148.888 358.175 147.818 358.05 146.996 358.05L141.589 358.042C129.964 358.01 117.978 358.437 106.43 357.197C104.311 351.462 103.889 344.715 103.073 338.668C102.548 334.783 101.736 330.644 101.784 326.729C103.709 327.438 106.498 326.901 108.534 326.786C109.225 326.747 110.35 326.813 110.945 326.503C111.451 326.24 112.439 326.405 113.041 326.418C113.166 326.272 113.565 325.703 113.705 325.645C114.019 325.515 114.992 325.59 115.368 325.573L120.126 325.287Z"/>
	<path fill="#9B3FC9" d="M101.784 326.729C103.709 327.438 106.498 326.901 108.534 326.786C109.225 326.747 110.35 326.813 110.945 326.503C111.451 326.24 112.439 326.405 113.041 326.418L113.756 326.773C113.055 327.358 110.269 327.014 109.072 327.267C107.657 327.567 105.588 326.778 104.308 327.451C103.876 327.678 103.556 327.666 103.081 327.67C102.993 327.831 102.815 328.282 102.692 328.385C102.638 328.429 102.3 328.524 102.278 328.557C102.198 328.678 102.328 328.842 102.353 328.984C102.488 329.777 102.56 330.57 102.627 331.371L102.718 330.29L103.192 330.103C103.51 330.282 103.572 330.236 103.704 330.594C104.361 332.36 105.967 333.829 107.038 335.361C108.011 336.754 108.624 338.231 109.786 339.525C110.654 340.491 111.513 342.057 112.267 343.177L117.035 349.472C117.278 349.762 117.775 349.924 117.839 350.107C118.04 350.678 118.219 350.953 118.656 351.37C119.414 352.092 119.589 353.127 119.844 354.112L119.57 354.95L120.3 355.47L120.375 356L128.75 356L128.945 356.362C127.536 357.239 123.477 356.446 121.755 356.368C118.572 356.222 115.415 356.404 112.25 356.593C111.079 356.663 109.886 356.472 108.762 356.872L108.875 357L109.375 356.877L109.625 357.129C110.821 357.12 112.757 356.875 113.875 357.281C114.661 357.566 116.047 357.377 116.903 357.382L124.941 357.375L125.25 357.127C125.635 357.179 126.006 357.23 126.385 357.319C127.546 357.592 128.954 357.323 130.169 357.496C132.037 357.763 134.039 357.639 135.925 357.646L145.428 357.679C146.353 357.681 149.056 357.405 149.677 357.977C148.888 358.175 147.818 358.05 146.996 358.05L141.589 358.042C129.964 358.01 117.978 358.437 106.43 357.197C104.311 351.462 103.889 344.715 103.073 338.668C102.548 334.783 101.736 330.644 101.784 326.729Z"/>
	<defs>
		<linearGradient id="gradient_1" gradientUnits="userSpaceOnUse" x1="228.62399" y1="91.249298" x2="130.799" y2="98.5625">
			<stop offset="0" stop-color="#7913B4"/>
			<stop offset="1" stop-color="#A04BC6"/>
		</linearGradient>
	</defs>
	<path fill="url(#gradient_1)" d="M163.948 43.6492C168.901 41.6312 174.229 40.7396 179.581 40.7541C192.71 40.8565 204.549 46.049 213.741 55.3577C224.519 66.2731 229.648 81.435 229.516 96.606C229.392 110.885 223.098 125.546 212.944 135.527C203.66 144.652 191.874 149.465 178.884 149.342C166.475 149.224 154.601 143.467 146.01 134.662C136.42 124.832 131.709 112.056 130.476 98.569L130.435 98.4304C130.099 97.1586 130.236 95.6069 130.239 94.2967C130.264 84.5147 133.173 74.054 138.079 65.625C142.946 57.2617 150.599 49.4351 159.499 45.4585C161.016 44.781 162.323 44.0784 163.948 43.6492Z"/>
	<path fill="#B868DF" d="M163.948 43.6492C168.901 41.6312 174.229 40.7396 179.581 40.7541C179.056 40.987 178.448 41.2754 177.875 41.3453C176.705 41.4879 175.867 40.9817 174.75 41.6275L174.823 41.9366L174.162 42.3129C174.395 42.4071 174.517 42.5065 174.765 42.466C175.371 42.3671 176.131 42.5133 176.747 42.5625C174.922 42.7633 173.174 43.0787 171.376 43.4494C170.452 43.64 169.243 44.0257 168.312 43.9846L167.5 42.9623C167.18 42.9927 166.859 42.9866 166.596 43.1937C166.439 43.3177 166.305 43.4733 166.125 43.5687C165.445 43.9294 164.663 43.7862 163.948 43.6492Z"/>
	<path fill="#CD99E6" d="M163.948 43.6492C164.663 43.7862 165.445 43.9294 166.125 43.5687C166.305 43.4733 166.439 43.3177 166.596 43.1937C166.859 42.9866 167.18 42.9927 167.5 42.9623L168.312 43.9846C166.019 44.7017 163.547 45.5039 161.375 46.5327C160.426 46.9825 159.584 47.5867 158.604 47.9716C157.241 48.506 155.909 49.6463 154.724 50.5202C147.009 56.2076 140.593 64.5119 136.875 73.34C133.574 81.1795 132.683 88.6163 131.875 96.9814C131.58 96.138 131.742 94.7897 131.75 93.875C132.6 92.6006 131.633 89.6394 132.5 88.125C132.465 87.7653 132.385 87.619 132.556 87.2953C132.872 86.6968 132.645 85.9584 132.908 85.3439C133.112 84.8692 133.104 84.1651 133.25 83.625C133.377 83.1557 133.198 82.8302 133.5 82.375L133.377 81.875C133.675 81.5757 133.737 81.6247 133.77 81.1836C133.811 80.6136 134.247 79.147 134.5 78.625C134.854 77.8946 134.935 77.1015 135.324 76.3711C135.502 76.0363 135.496 75.8658 135.534 75.4907C135.564 75.1937 135.744 74.9495 135.889 74.6965C136.044 74.4257 136.136 74.1643 136.25 73.875C136.449 73.3723 136.701 72.9627 136.809 72.4272C136.891 72.017 137.037 71.9541 137.25 71.625L137.438 71.1875C137.884 70.0878 138.58 68.4522 139.297 67.5352C139.776 66.9225 140.059 66.1501 140.5 65.5C141.389 64.1888 142.563 62.7015 143.251 61.3256C143.433 60.9614 143.926 60.5851 144.188 60.1875L145 59.375L145.001 59.0625L150.188 53.6238C149.039 53.7735 148.382 54.0564 147.515 54.823C146.644 55.5941 145.981 56.0375 145.714 57.2338L145.583 57.3383C144.997 57.8127 144.552 58.3881 143.956 58.8458C142.501 59.9638 142.103 61.9699 140.863 63.2634L140.71 63.5896C140.442 64.2054 139.903 64.4763 139.573 65.0154C138.489 66.7878 137.685 68.6686 136.349 70.3274C135.405 71.4994 134.851 73.3481 134.363 74.7666C133.433 77.4725 132.32 80.397 131.972 83.2406L130.873 90.7834C130.652 92.2279 130.904 93.7266 130.812 95.1875L131.192 95.1393C131.543 96.1016 131.238 97.3534 131.115 98.3633L130.476 98.569L130.435 98.4304C130.099 97.1586 130.236 95.6069 130.239 94.2967C130.264 84.5147 133.173 74.054 138.079 65.625C142.946 57.2617 150.599 49.4351 159.499 45.4585C161.016 44.781 162.323 44.0784 163.948 43.6492Z"/>
	<path fill="#8322BD" d="M203.275 117.189C204.23 118.05 204.001 118.294 204.275 119.5C204.586 120.871 204.913 122.788 204.541 124.148L204.373 124.262L204.504 125.423C204.597 126.426 204.223 126.879 203.638 127.633C202.103 128.422 200.456 128.128 198.785 128.132C197.794 128.134 197.179 128.386 196.25 128.612C195.649 128.758 195.045 128.571 194.428 128.768C192.974 129.232 191.063 128.757 189.518 128.995C187.746 129.269 185.864 129.135 184.07 129.138L174.647 129.142C171.746 129.14 168.339 129.474 165.5 129.112C163.808 128.896 162.276 128.894 160.558 128.854C159.78 128.835 159.166 128.615 158.312 128.688L158.595 128.974C158.17 129.026 158.071 129.109 157.726 128.849C157.073 128.355 156.44 127.066 156.275 126.273L203.829 126.487C203.923 123.306 203.854 120.328 203.275 117.189Z"/>
	<path fill="#8322BD" d="M194.24 75.2065L195.02 75.4482L194.911 76.0576C195.498 76.5771 195.54 77.6797 195.668 78.4544C195.816 79.35 196.672 80.1341 196.872 81.2489C197.084 82.4365 197.381 83.4224 197.159 84.6312C197.043 85.2658 197.139 85.9312 197.04 86.5717C196.673 88.9359 195.261 91.496 193.911 93.4088C192.639 95.2108 191.06 96.4903 188.984 97.2122C186.281 98.1522 182.902 99.0911 180.124 97.8802C179.144 97.453 177.722 96.6234 176.692 96.5854C175.801 96.5525 173.632 95.4543 173.038 94.7946C172.239 93.9091 171.906 93.1921 171.493 92.0845C174.456 94.0357 177.776 95.6899 181.459 95.1365C185.418 94.5417 188.909 92.1738 191.264 88.9474C194.256 84.8497 194.998 80.1237 194.24 75.2065Z"/>
	<path fill="#F7A303" d="M171.493 92.0845C169.445 90.2134 167.815 88.3293 166.685 85.7629C164.7 81.2559 164.778 76.9226 166.573 72.381C168.19 68.2867 171.398 65.4076 175.323 63.6047L176.379 63.1656C179.873 62.065 182.847 62.526 186.033 64.2069C190.608 66.6205 192.762 70.4409 194.24 75.2065C194.998 80.1237 194.256 84.8497 191.264 88.9474C188.909 92.1738 185.418 94.5417 181.459 95.1365C177.776 95.6899 174.456 94.0357 171.493 92.0845Z"/>
	<path fill="#F88D06" d="M156.275 126.273C156.148 126.057 156.085 125.889 156.069 125.637C155.649 118.888 157.291 111.716 161.191 106.128C162.973 103.575 165.39 101.228 167.505 98.9397C169.308 100.222 171.131 101.106 173.246 101.744C175.246 102.347 177.528 102.976 179.628 103.025C184.22 103.134 188.544 101.181 192.48 99.0696C198.216 104.621 201.41 109.371 203.275 117.189C203.854 120.328 203.923 123.306 203.829 126.487L156.275 126.273Z"/>
	<defs>
		<linearGradient id="gradient_2" gradientUnits="userSpaceOnUse" x1="162.47701" y1="251.882" x2="194.994" y2="146.149">
			<stop offset="0" stop-color="#FC8308"/>
			<stop offset="1" stop-color="#F7BB07"/>
		</linearGradient>
	</defs>
	<path fill="url(#gradient_2)" d="M63.7479 222.082C63.4993 221.297 63.5354 220.306 63.4713 219.48L63.0398 214.07L61.6969 194C61.3565 188.44 60.9614 183.067 61.0655 177.488C61.7152 177.158 63.0881 177.274 63.8289 177.252L72.8064 177.216L99.5975 177.219L239.505 177.114L278.711 177.086L290.14 177.084C293.053 177.086 296.032 177.02 298.918 177.459C299.409 182.689 298.598 188.147 298.265 193.375L296.407 220.727C296.27 221.71 296.374 222.596 295.625 223.279L294.41 223.437L236.084 223.684L208.608 223.712L154.188 223.733L95.3058 223.735L68.569 223.725C67.1985 223.691 65.3814 223.78 64.2245 223.026C63.9044 222.718 63.8791 222.5 63.7479 222.082Z"/>
	<path fill="#F58112" d="M63.7479 222.082C63.8113 221.061 63.8709 220.134 63.6559 219.125L63.9397 219.089C64.2373 220.156 64.0099 220.921 64.625 221.877C66.662 221.876 68.6713 221.992 70.5 221.377C71.092 221.178 72.0199 221.502 72.6873 221.319C73.6034 221.067 75.4197 221.543 76.4379 221.56L86 221.496L96.0139 221.779L123.5 221.551L181.803 221.753C182.867 221.407 184.969 221.683 186.132 221.688L198.369 221.732L271.694 221.963L286.25 222.061C288.977 222.122 292.216 222.607 294.875 222.17C295.707 222.033 295.99 221.364 296.407 220.727C296.27 221.71 296.374 222.596 295.625 223.279L294.41 223.437L236.084 223.684L208.608 223.712L154.188 223.733L95.3058 223.735L68.569 223.725C67.1985 223.691 65.3814 223.78 64.2245 223.026C63.9044 222.718 63.8791 222.5 63.7479 222.082Z"/>
	<path fill="#F88D06" d="M296.407 220.727C296.27 221.71 296.374 222.596 295.625 223.279L294.41 223.437C293.876 223.176 293.217 223.302 292.757 222.995C292.166 222.601 263.233 222.896 259.604 222.86C258.125 222.845 254.044 223.281 252.877 222.625C253.831 222.144 255.616 222.679 256.75 222.375L195.882 221.979L186.014 221.932C184.814 221.93 182.91 222.177 181.803 221.753C182.867 221.407 184.969 221.683 186.132 221.688L198.369 221.732L271.694 221.963L286.25 222.061C288.977 222.122 292.216 222.607 294.875 222.17C295.707 222.033 295.99 221.364 296.407 220.727Z"/>
	<path fill="#F47008" d="M64.2245 223.026C65.9183 222.115 68.7034 222.03 70.6595 221.959L94.5737 222.176L135.212 222.293C137.55 222.381 140.609 221.985 142.835 222.486L143.084 222.562C144.481 222.929 146.69 222.636 148.162 222.637L161.375 222.637L210.497 223.149C218.465 223.215 226.686 222.668 234.625 223.215C235.196 223.254 235.617 223.334 236.084 223.684L208.608 223.712L154.188 223.733L95.3058 223.735L68.569 223.725C67.1985 223.691 65.3814 223.78 64.2245 223.026Z"/>
	<defs>
		<linearGradient id="gradient_3" gradientUnits="userSpaceOnUse" x1="179.873" y1="182.33299" x2="179.92599" y2="218.25101">
			<stop offset="0" stop-color="#E9D7EA"/>
			<stop offset="1" stop-color="#FDFAF9"/>
		</linearGradient>
	</defs>
	<path fill="url(#gradient_3)" d="M67.7799 182.122L84.2786 182.041L112.738 182.003L204.326 181.971L262.703 181.954L281.357 181.96C285.538 181.969 289.764 181.86 293.926 182.275C294.121 185.203 293.918 188.189 293.813 191.119L292.673 209.925C292.486 212.572 292.004 215.269 292.063 217.919L292.072 218.241L291.375 218.548L68.2517 218.696L67.2012 204.918L66.2414 187.375C66.2283 186.019 65.8592 183.236 66.5 182.183L67.7799 182.122Z"/>
	<defs>
		<linearGradient id="gradient_4" gradientUnits="userSpaceOnUse" x1="156.21899" y1="331.73999" x2="201.556" y2="213.998">
			<stop offset="0" stop-color="#FC7F0F"/>
			<stop offset="1" stop-color="#F4B609"/>
		</linearGradient>
	</defs>
	<path fill="url(#gradient_4)" d="M67.962 250.368L298.155 250.336L295.084 297.992L292.813 298.059L65.018 298.019C64.7078 296.161 64.7726 294.184 64.6165 292.301L63.463 274.806L62.1551 250.467L67.962 250.368Z"/>
	<path fill="#F58112" d="M69.6846 292.02C69.7975 291.392 70.1146 290.977 70.4703 290.458L71.0268 290.423C71.3824 290.608 71.6781 290.817 72.0938 290.747L106.048 290.738L106.134 290.947C106.354 291.499 106.479 292.003 106.789 292.522C112.157 293.094 117.885 292.734 123.296 292.731L143.676 292.518L158.285 292.718C163.816 292.719 169.661 292.34 175.165 292.744C174.796 292.911 174.407 293.059 174 293.094C171.519 293.306 168.886 293.131 166.391 293.125L152.19 293.111L148.124 293.124C147.315 293.143 146.641 293.396 145.842 293.174C143.566 292.54 140.266 293.344 137.926 293.378L118.533 293.378L110.928 293.291C109.928 293.234 108.957 293.332 107.98 293.055C108.898 293.856 110.689 293.05 111.75 293.377C112.758 293.688 113.653 293.626 114.75 293.625C115.146 293.233 115.823 293.377 116.375 293.377L116.625 293.627L116.836 293.601C118.686 293.386 120.86 293.634 122.75 293.627L122.791 293.935C121.986 293.992 121.173 294.021 120.381 294.18C119.456 294.365 117.576 294.37 116.669 294.112C116.282 294.001 115.911 294.131 115.529 294.22C115.279 294.123 115.134 293.995 114.873 294.073C113.336 294.532 109.894 294.46 108.375 294L107.459 293.863L107.024 293.524L106.796 293.618C106.074 293.909 105.32 294.172 104.538 294.234C101.883 294.443 99.0602 294.259 96.3901 294.26L80.031 294.253C78.7531 294.254 77.4195 294.181 76.1478 294.263C75.457 294.308 75.1491 294.549 74.435 294.367C73.2216 294.057 71.5304 294.214 70.375 294.627C74.1528 294.934 78.0738 294.748 81.8721 294.742C82.8627 294.74 84.8037 294.461 85.6225 294.875C84.702 295.487 70.9231 295.123 68.625 295.123L68.1811 294.5C68.3043 294.134 68.295 293.957 68.6031 293.709C69.2982 293.023 69.3742 292.951 69.5418 291.996L69.6846 292.02Z"/>
	<path fill="#F3B3BC" d="M69.6846 292.02C69.7975 291.392 70.1146 290.977 70.4703 290.458L71.0268 290.423C71.3824 290.608 71.6781 290.817 72.0938 290.747L106.048 290.738L106.134 290.947C106.354 291.499 106.479 292.003 106.789 292.522C103.149 292.932 99.3546 292.732 95.6884 292.738L72.3382 292.852C71.5465 292.868 70.7849 292.914 70.0083 292.73L69.6846 292.02Z"/>
	<path fill="#E2D1E2" d="M69.6846 292.02C69.7975 291.392 70.1146 290.977 70.4703 290.458L71.0268 290.423C71.3824 290.608 71.6781 290.817 72.0938 290.747L73.25 291.119C72.6845 291.474 72.0335 291.402 71.3738 291.438L71.75 292.189L72.625 292.127C72.6263 292.546 72.3312 292.585 72.3382 292.852C71.5465 292.868 70.7849 292.914 70.0083 292.73L69.6846 292.02Z"/>
	<path fill="#F47008" d="M68.6031 293.709C68.0591 293.112 67.7196 292.717 67.6674 291.875C67.6461 291.531 67.6452 291.406 67.4972 291.084C67.0837 290.184 67.4263 288.329 67.3917 287.298C67.3814 286.992 67.2042 286.785 67.1275 286.5C66.9808 285.954 67.293 285.122 67.1275 284.625C66.8327 283.74 66.9254 283.028 66.7953 282.081C66.6378 280.935 66.6369 279.828 66.6309 278.672C66.6281 278.144 66.4929 277.636 66.875 277.25L66.875 276.25C66.8875 275.743 66.7023 275.438 66.6563 274.954L66.6275 274.625L66.3191 274.606C65.6622 270.658 65.801 266.133 65.8006 262.125C65.8004 259.829 66.6057 256.726 65.7934 254.594L65.7043 254.375L66.125 253.95L230.691 253.969L275.238 254.002L287.576 254.001C289.501 254.002 291.691 253.769 293.564 254.125C293.557 254.739 293.372 255.033 293.043 255.542L68.125 255.493C67.8034 255.953 67.7877 256.143 67.7885 256.679L68.0977 256.479L68.3368 256.644L68.3125 258.126L68.6903 258.251C68.7056 259.278 68.6053 260.687 68.9679 261.645L69.0269 263.413C68.9922 264.745 68.9441 265.506 68.1399 266.597L67.9658 266.839L68.3881 274.546L69.4798 288.027C69.4739 289.334 69.3912 290.699 69.5418 291.996C69.3742 292.951 69.2982 293.023 68.6031 293.709Z"/>
	<path fill="#E2D1E2" d="M67.7885 256.679L68.0977 256.479L68.3368 256.644L68.3125 258.126L68.6903 258.251C68.7056 259.278 68.6053 260.687 68.9679 261.645L69.0269 263.413C68.9922 264.745 68.9441 265.506 68.1399 266.597L67.9658 266.839C67.363 263.589 67.6904 259.976 67.7885 256.679Z"/>
	<defs>
		<linearGradient id="gradient_5" gradientUnits="userSpaceOnUse" x1="180.007" y1="292.49799" x2="180.26199" y2="255.243">
			<stop offset="0" stop-color="#F1B6BD"/>
			<stop offset="1" stop-color="#FAD3CD"/>
		</linearGradient>
	</defs>
	<path fill="url(#gradient_5)" d="M67.7885 256.679C67.7877 256.143 67.8034 255.953 68.125 255.493L293.043 255.542C293.033 257.762 292.464 259.846 292.297 262.042L291.609 276.848L290.889 286.6C290.721 288.769 290.412 290.792 290.564 292.98C284.937 292.376 279.027 292.74 273.359 292.741L243.171 292.753L222.701 292.729L216.125 292.514L196.902 292.753L175.165 292.744C169.661 292.34 163.816 292.719 158.285 292.718L143.676 292.518L123.296 292.731C117.885 292.734 112.157 293.094 106.789 292.522C106.479 292.003 106.354 291.499 106.134 290.947L106.048 290.738L72.0938 290.747C71.6781 290.817 71.3824 290.608 71.0268 290.423L70.4703 290.458C70.1146 290.977 69.7975 291.392 69.6846 292.02L69.5418 291.996C69.3912 290.699 69.4739 289.334 69.4798 288.027L68.3881 274.546L67.9658 266.839L68.1399 266.597C68.9441 265.506 68.9922 264.745 69.0269 263.413L68.9679 261.645C68.6053 260.687 68.7056 259.278 68.6903 258.251L68.3125 258.126L68.3368 256.644L68.0977 256.479L67.7885 256.679Z"/>
	<defs>
		<linearGradient id="gradient_6" gradientUnits="userSpaceOnUse" x1="166.373" y1="255.092" x2="155.978" y2="292.547">
			<stop offset="0" stop-color="#F8A503"/>
			<stop offset="1" stop-color="#F68C06"/>
		</linearGradient>
	</defs>
	<path fill="url(#gradient_6)" d="M144.021 257.714L178.786 257.82L178.725 290.77L144.592 290.847L144.021 257.714Z"/>
	<path fill="#F1EDF5" d="M160.451 266.375C161.164 266.246 162.282 266.242 162.904 266.625C163.207 268.303 163.184 270.007 163.21 271.706C164.44 271.292 166.22 270.373 167.5 270.483L167.919 271.022C168.092 272.118 168.306 272.647 167.875 273.687L164.057 274.864C164.929 276.34 166.394 277.725 166.276 279.5C165.765 280.159 165.402 280.51 164.625 280.829C163.622 280.243 162.747 278.801 162.021 277.875C161.784 277.547 161.75 277.514 161.375 277.366L158.679 281.154L156.274 279.746C156.957 277.993 157.872 276.496 158.911 274.93C157.72 274.606 155.755 274.656 154.83 273.928C154.685 273.034 154.913 272.262 155.125 271.401C156.899 270.372 158.106 271.911 159.774 271.717C159.942 269.984 159.957 268.043 160.451 266.375Z"/>
	<path fill="#F7A303" d="M181.676 257.875L215.918 257.792C216.931 259.741 215.569 286.297 215.476 290.728L181.287 290.721L181.061 266.094C181.064 264.125 180.987 262.108 181.106 260.144C181.132 259.707 181.11 258.765 181.272 258.375C181.354 258.177 181.542 258.042 181.676 257.875Z"/>
	<path fill="#F1EDF5" d="M198.338 266.375C198.78 266.201 199.163 266.24 199.625 266.263C200.392 267.487 200.1 270.367 200.134 271.859L204.704 270.168L205.924 273.427L201.062 275.037C202.314 276.377 203.165 277.824 203.967 279.466C203.333 280.097 202.446 280.596 201.709 281.11C201.059 279.91 200.19 278.913 199.316 277.875L198.75 277.247L198.375 277.267C197.657 278.663 196.64 279.966 195.753 281.262L193.454 279.805C193.685 278.481 195.41 276.18 196.113 275.003C195.072 274.663 192.246 274.338 191.671 273.625C191.788 272.671 191.683 271.86 192.375 271.164C193.968 270.896 195.417 271.33 196.955 271.701L197.165 267.875C197.347 266.931 197.565 266.884 198.338 266.375Z"/>
	<path fill="#F7A303" d="M219.112 257.875C221.837 257.269 225.595 257.705 228.422 257.693L253.544 257.814C253.821 262.254 253.343 266.702 253.083 271.125L252.113 290.788L217.754 290.693C217.581 290.286 217.579 289.93 217.568 289.496C217.444 284.633 218.026 279.596 218.168 274.71C218.307 269.973 218.02 265.122 218.37 260.416C218.436 259.523 218.461 258.556 219.112 257.875Z"/>
	<path fill="#F1EDF5" d="M234.59 266.224L237.555 266.385L237.47 271.829L242.194 269.969L243.024 273.578C241.496 273.926 240.069 274.489 238.611 275.051L241.395 279.272L238.952 281.154L238.737 281.057L236.958 278.214C236.782 277.824 236.564 277.67 236.25 277.396C235.143 277.725 233.676 280.323 232.937 281.298C232.216 280.84 231.54 280.446 231.017 279.75C231.044 278.159 232.621 276.295 233.389 274.837L228.757 273.982L229.817 270.932C231.2 270.727 233.074 271.444 234.376 271.872L234.59 266.224Z"/>
	<path fill="#F7A303" d="M256.137 257.875L290.937 257.788C291.185 262.634 290.394 267.623 290.016 272.456L289.632 281.408L288.94 290.825L262.138 290.705L256.47 290.711C255.805 290.711 254.84 290.849 254.251 290.571C254.214 286.735 254.843 283.057 255.012 279.25L255.163 270.839L255.536 264.88C255.594 262.938 255.314 260.332 255.752 258.5C255.792 258.335 256.04 258.033 256.137 257.875Z"/>
	<path fill="#F1EDF5" d="M271.92 266.294L274.745 266.358C275.167 267.75 274.882 270.331 274.891 271.846C276.188 271.097 277.695 270.754 279.125 270.337L279.565 270.625C279.892 271.659 280.222 272.621 279.737 273.625C278.503 274.219 277.122 274.59 275.821 275.018L278.524 278.925C278.012 279.78 277.085 280.442 276.342 281.1C275.46 280.135 274.748 278.967 274.006 277.889L273.625 277.267L273.125 277.275C272.099 278.52 271.284 279.964 270.427 281.329L267.951 279.5C268.852 277.895 269.801 276.436 270.92 274.975L266.06 273.912C266.274 272.974 266.432 272.062 267 271.261C268.405 270.66 270.433 271.469 271.802 271.895L271.92 266.294Z"/>
	<defs>
		<linearGradient id="gradient_7" gradientUnits="userSpaceOnUse" x1="120.393" y1="292.07401" x2="128.10699" y2="255.67599">
			<stop offset="0" stop-color="#F78606"/>
			<stop offset="1" stop-color="#F89E04"/>
		</linearGradient>
	</defs>
	<path fill="url(#gradient_7)" d="M106.565 257.801L141.343 257.769C142.208 262.495 141.755 267.394 141.829 272.174L142.393 290.747L107.825 290.907L107.16 279.909L106.927 272.488C106.609 267.565 106.239 262.743 106.565 257.801Z"/>
	<path fill="#F1EDF5" d="M123.161 266.375C124.069 266.204 124.753 266.325 125.625 266.555C126.188 267.779 125.805 270.38 125.785 271.774C127.089 271.22 128.495 270.723 129.875 270.401L130.473 270.875C130.798 271.621 130.988 272.181 130.992 273C130.351 274.068 127.932 274.59 126.687 275.063C127.518 276.023 128.982 277.847 129.005 279.125C128.595 280.029 128.293 280.192 127.5 280.737C127.224 280.655 127.048 280.608 126.82 280.425C125.974 279.743 125.336 278.516 124.875 277.55C124.55 277.341 124.515 277.351 124.125 277.367C123.026 278.676 122.141 280.009 121.258 281.467L118.95 279.504C119.832 277.888 120.709 276.462 121.89 275.039C120.531 274.665 118.504 274.514 117.375 273.719L117.262 273C117.498 272.305 117.675 271.713 118.188 271.162C119.587 270.76 121.432 271.42 122.78 271.85C122.856 270.045 122.822 268.151 123.161 266.375Z"/>
	<path fill="#F88D06" d="M68.9679 261.645L69.0595 257.882L104.261 257.85C104.665 260.765 104.432 263.739 104.497 266.674L104.914 273.197L105.695 286.966C105.825 288.204 105.808 289.523 106.048 290.738L72.0938 290.747C71.6781 290.817 71.3824 290.608 71.0268 290.423L70.4703 290.458C70.1146 290.977 69.7975 291.392 69.6846 292.02L69.5418 291.996C69.3912 290.699 69.4739 289.334 69.4798 288.027L68.3881 274.546L67.9658 266.839L68.1399 266.597C68.9441 265.506 68.9922 264.745 69.0269 263.413L68.9679 261.645Z"/>
	<path fill="#F9D0C3" d="M70.5747 284.89C70.8053 286.734 71.0697 288.56 71.0268 290.423L70.4703 290.458C70.1146 290.977 69.7975 291.392 69.6846 292.02L69.5418 291.996C69.3912 290.699 69.4739 289.334 69.4798 288.027C70.2756 286.936 70.486 286.234 70.5747 284.89Z"/>
	<path fill="#F9D0C3" d="M69.0269 263.413L69.9645 275.373L69.8367 275.099C69.5292 274.482 69.386 274.148 69.3769 273.439L69.3775 273.25L69.149 273.882L68.6673 273.375L68.3881 274.546L67.9658 266.839L68.1399 266.597C68.9441 265.506 68.9922 264.745 69.0269 263.413Z"/>
	<path fill="#E2D1E2" d="M68.3881 274.546L68.6673 273.375L69.149 273.882L69.3775 273.25L69.3769 273.439C69.386 274.148 69.5292 274.482 69.8367 275.099L69.9645 275.373C70.0989 278.449 69.9118 281.893 70.5747 284.89C70.486 286.234 70.2756 286.936 69.4798 288.027L68.3881 274.546Z"/>
	<path fill="#F1EDF5" d="M83.8703 281.32C83.0507 280.632 82.281 280.186 82.0132 279.125C82.4087 277.68 83.7255 276.145 84.5614 274.889L79.8472 274.005L80.7583 271.027C82.1191 270.727 84.2008 271.448 85.5168 271.819L85.5753 266.248L88.5583 266.386C88.5517 267.645 88.2183 270.607 88.6667 271.679L93.2181 270.084L93.8247 273.498L89.6398 274.977C90.3932 276.372 91.2378 277.607 92.1798 278.876L92.1066 279.048C91.7406 279.714 90.6161 280.745 89.875 280.928L89.169 280.22C88.2908 280.045 88.0708 279.204 87.3719 279.621C87.1989 279.725 86.7156 280.023 86.6079 280.18C86.3659 280.532 86.347 281.313 85.9139 281.416C85.4774 281.52 85.1042 281.578 84.75 281.873C84.246 281.747 84.2174 281.711 83.8703 281.32Z"/>
	<path fill="#F47008" d="M83.8703 281.32C84.8139 280.356 85.9709 277.672 87.0692 277.388C87.9804 278.092 88.5642 279.248 89.169 280.22C88.2908 280.045 88.0708 279.204 87.3719 279.621C87.1989 279.725 86.7156 280.023 86.6079 280.18C86.3659 280.532 86.347 281.313 85.9139 281.416C85.4774 281.52 85.1042 281.578 84.75 281.873C84.246 281.747 84.2174 281.711 83.8703 281.32Z"/>
</svg>
