<?xml version="1.0" encoding="utf-8" ?>
<svg xmlns="http://www.w3.org/2000/svg" xmlns:xlink="http://www.w3.org/1999/xlink" width="664" height="628">
	<path fill="white" transform="scale(0.332108 0.314315)" d="M-0 1529.47L0 -0L2000 0L2000 2000L-0 2000L0 1531.03L-0 1529.47Z"/>
	<path fill="#ECECEB" transform="scale(0.332108 0.314315)" d="M613.864 611.299C614.736 608.964 615.022 607.852 616.699 605.968C622.558 606.917 634.324 607.461 638.869 611.187L613.864 611.299Z"/>
	<path fill="#ECECEB" transform="scale(0.332108 0.314315)" d="M794.45 611.297L794.869 604.492C797.342 602.919 801.234 603.564 804.199 603.587C806.092 606.214 805.62 608.107 805.699 611.294L794.45 611.297Z"/>
	<path fill="#ECECEB" transform="scale(0.332108 0.314315)" d="M665.072 611.297L665.33 604.586C668.004 602.868 672.089 603.632 675.293 603.704C676.518 606.134 676.306 608.639 676.331 611.291L665.072 611.297Z"/>
	<path fill="#F3F3F3" transform="scale(0.332108 0.314315)" d="M969.474 611.517L969.745 534.527L969.729 395.779L969.741 292.285C969.738 275.434 970.656 257.964 969.623 241.186C969.396 237.502 967.884 234.259 966.344 230.957L967.599 230.558C968.941 232.971 970.499 235.481 970.768 238.281C971.597 246.937 970.814 256.442 970.817 265.169L970.801 319.626L970.741 516.147L970.753 578.201C970.765 589.029 970.118 600.397 970.985 611.166L969.474 611.517Z"/>
	<path fill="#F3F3F3" transform="scale(0.332108 0.314315)" d="M1036.48 220.215C1040.81 219.158 1046.31 219.714 1050.78 219.707L1076.82 219.703L1181.88 219.699L1626.46 219.723L1748.07 219.714L1796.65 219.642C1804.96 219.648 1815.04 218.331 1822.75 221.558L1823.15 222.549L1820.66 222.168C1813.84 220.277 1806.82 220.765 1799.81 220.747L1767.28 220.725L1666.44 220.801L1167.19 220.777L1046.22 220.793C1043.39 220.801 1036.39 222.465 1034.18 221.919C1033.66 221.791 1033.23 221.434 1032.76 221.191L1036.48 220.215Z"/>
	<path fill="#F3F3F3" transform="scale(0.332108 0.314315)" d="M172.995 219.804L345.008 219.704L669.076 219.7L859.156 219.693L920.049 219.719C929.965 219.724 940.333 219.123 950.195 219.757C953.122 219.945 955.788 221.05 958.46 222.168L957.52 223.135L951.993 221.205C945.931 220.403 939.508 220.819 933.391 220.816L899.343 220.803L784.976 220.793L402.281 220.788L252.01 220.793L198.901 220.8C189.615 220.802 177.385 219.225 168.722 222.275C167.039 222.868 167.169 222.655 165.537 222.168C167.93 221.035 170.444 220.463 172.995 219.804Z"/>
	<path fill="#F3F3F3" transform="scale(0.332108 0.314315)" d="M1831.56 230.957L1832.17 230.976C1833.62 232.114 1834.4 233.111 1835.02 234.832C1837.04 240.411 1836 248.523 1836 254.486L1836.01 292.957L1836 445.021L1836.03 1144.44L1836.02 1271.31C1836.01 1291.24 1837.39 1312.3 1835.83 1332.13C1835.64 1334.47 1834.94 1336.26 1834 1338.38L1833.12 1337.89L1833.93 1334.96C1835.78 1328.95 1834.99 1321.88 1834.99 1315.61L1834.99 1282.16L1835 1167.11L1834.99 634.653L1835.03 370.661L1835.01 284.11C1835 269.963 1835.78 255.313 1834.94 241.211C1834.73 237.543 1833.09 234.234 1831.56 230.957Z"/>
	<path fill="#E1E1E1" transform="scale(0.332108 0.314315)" d="M1662.19 537.05L1670.41 537.117C1670.83 537.602 1671.39 537.996 1671.67 538.574C1672.55 540.411 1671.66 550.176 1671.66 552.834L1671.62 615.338L1671.59 975.098C1669.76 977.285 1667.64 976.95 1664.91 977.382L1662.42 975.37L1662.19 537.05Z"/>
	<path fill="#F3F3F3" transform="scale(0.332108 0.314315)" d="M1252.5 611.299L1252.66 537.021L1444.2 537.03C1445.36 541.974 1446.72 546.415 1448.96 551L1277.31 551.148L1277.26 611.293L1270.12 611.296L1252.5 611.299Z"/>
	<path fill="#E1E1E1" transform="scale(0.332108 0.314315)" d="M1270.12 611.296L1269.93 566.44C1269.93 562.63 1268.91 554.275 1270.88 551.27L1277.31 551.148L1277.26 611.293L1270.12 611.296Z"/>
	<path fill="#F3F3F3" transform="scale(0.332108 0.314315)" d="M-0 1529.47L302.716 1529.43L302.716 1351.45L220.306 1351.43L190.963 1351.41C182.532 1351.4 174.67 1351.82 166.504 1349.44L166.504 1348.38L170.931 1349.43L172.852 1349.72C186.255 1351.95 201.568 1350.45 215.293 1350.45L302.72 1350.36L302.677 856.639L302.683 739.193L302.686 711.17C302.69 706.56 301.936 700.46 303.639 696.182L303.75 1355.47L303.681 1491.4L303.663 1520.45C303.665 1523.28 302.996 1527.8 304.2 1530.21L401.32 1530.2L401.3 1464.71C405.983 1461.24 411.546 1457.45 415.114 1452.84C417.806 1449.35 418.766 1445.26 417.975 1440.92C416.976 1435.44 412.305 1432.16 407.896 1429.44L406.738 1428.74C405.394 1425.96 403.684 1423.62 401.861 1421.13C407.073 1415.57 412.652 1409.49 420.879 1409.25C427.545 1409.05 433.942 1412.51 438.456 1417.21C444.715 1423.72 448.299 1433.02 451.18 1441.44C460.859 1469.72 463.114 1500.91 465.103 1530.56C447.303 1532.35 428.277 1530.92 410.328 1531.01L291.846 1531.04L0 1531.03L-0 1529.47Z"/>
	<path fill="#F3F3F3" transform="scale(0.332108 0.314315)" d="M1629.82 537.031L1662.19 537.05L1662.42 975.37L1664.91 977.382L1591.47 977.793L1592.29 974.72C1592.79 971.378 1589.65 969.085 1587.59 966.695L1592.9 958.01C1595.53 959.587 1598 961.357 1601.07 961.9L1605.58 956.838C1621.4 936.543 1635.93 916.003 1642.61 890.798L1642.63 879.08C1647.17 872.779 1645.19 862.107 1645.68 854.502L1632.91 854.781L1626.8 843.722L1615.31 825.253L1645.36 825.06L1645.32 551.312L1625.03 551.065C1627.23 546.444 1628.61 542.017 1629.82 537.031Z"/>
	<path fill="#E1E1E1" transform="scale(0.332108 0.314315)" d="M1626.8 843.722L1645.02 843.852C1646.86 846.702 1646.03 851.11 1645.68 854.502L1632.91 854.781L1626.8 843.722Z"/>
	<path fill="white" transform="scale(0.332108 0.314315)" d="M1642.61 890.798C1644.2 891.594 1644.21 891.183 1644.73 892.678C1646.32 897.204 1645.39 904.738 1645.4 909.736L1645.26 957.408C1642.23 958.444 1638.16 957.947 1634.91 957.95C1627.6 957.959 1611.79 959.799 1605.58 956.838C1621.4 936.543 1635.93 916.003 1642.61 890.798Z"/>
	<path fill="#F3F3F3" transform="scale(0.332108 0.314315)" d="M1577.02 1125.23L1637.7 1124.96L1661.42 1124.78C1667.4 1124.74 1673.1 1124.3 1678.71 1126.67L1679.91 1127.15C1685.03 1129.34 1689.62 1134.43 1691.5 1139.65C1695.44 1150.57 1691.11 1167.89 1689.7 1179.28L1683.59 1228.12C1683.05 1232.65 1681.04 1240.82 1682.7 1244.94L1577.7 1245.14C1584.66 1249.31 1590.35 1253.47 1592.3 1261.95C1593.46 1266.98 1592.45 1273.86 1591.85 1278.97C1590.59 1289.76 1592 1306.74 1582.97 1314.5C1580.52 1316.61 1577.67 1317.97 1574.71 1319.18L1573.69 1318.36L1573.11 1311.12L1577.02 1125.23Z"/>
	<path fill="#fff" transform="scale(0.332108 0.314315)" d="M465.411 1536.87L476.096 1536.86L477.846 1536.84L482.002 1536.9L564.321 1536.87C564.408 1544.26 565.847 1552.9 560.002 1558.52C556.336 1562.04 551.489 1562.4 546.69 1562.38L537.626 1628.6L532.413 1666.97L408.453 1666.98L403.875 1632.85L394.328 1562.4L391.805 1562.42C386.748 1562.36 382.136 1561.62 378.566 1557.66C373.648 1552.22 374.971 1543.62 375.013 1536.84L465.411 1536.87Z"/>
	<path fill="#1B2F35" transform="scale(0.332108 0.314315)" d="M465.411 1536.87L476.096 1536.86L477.846 1536.84L482.002 1536.9L564.321 1536.87C564.408 1544.26 565.847 1552.9 560.002 1558.52C556.336 1562.04 551.489 1562.4 546.69 1562.38L394.328 1562.4L391.805 1562.42C386.748 1562.36 382.136 1561.62 378.566 1557.66C373.648 1552.22 374.971 1543.62 375.013 1536.84L465.411 1536.87Z"/>
	<path fill="#AACBFE" transform="scale(0.332108 0.314315)" d="M1444.2 537.03L1444.14 462.196C1444.14 450.378 1442.64 436.295 1445.06 424.805L1445.32 423.511C1447.25 414.637 1453.53 406.816 1461.2 402.108C1464.74 399.933 1469.42 398.138 1473.55 397.598C1481.44 396.566 1489.91 397.07 1497.87 397.057L1539 397.027L1579.03 397.073C1586.86 397.09 1595.75 396.295 1603.38 398.119C1612.65 400.335 1620.75 406.927 1625.39 415.144C1627.69 419.215 1629.29 424.064 1629.74 428.736C1630.82 440.227 1629.94 452.68 1629.95 464.264L1629.82 537.031C1628.61 542.017 1627.23 546.444 1625.03 551.065C1620.39 557.762 1614.41 563.122 1606.71 566C1598.97 568.888 1589.98 568.079 1581.87 568.11L1545.57 568.154C1544.22 568.153 1537.79 567.623 1536.88 568.147C1534.36 569.595 1530.98 574.036 1528.83 576.182L1504.94 600.008L1513.01 568.115C1500.1 568.148 1486.04 569.194 1473.3 567.415C1462.48 565.905 1455.31 559.342 1448.96 551C1446.72 546.415 1445.36 541.974 1444.2 537.03Z"/>
	<path fill="#fe9400" transform="scale(0.332108 0.314315)" d="M1533.63 425.15C1545.15 423.857 1559.05 428.032 1568.6 434.425C1581.1 442.8 1590.28 456.277 1593.08 471.08C1595.98 486.42 1592.77 502.397 1583.78 515.196C1573.68 529.58 1559.71 536.176 1542.87 539.171C1527.31 539.322 1514.48 537.071 1501.95 527.347C1489.66 517.803 1482.14 503.964 1480.31 488.598C1478.53 473.642 1483.12 458.215 1492.43 446.43C1502.95 433.106 1517.04 426.999 1533.63 425.15Z"/>
	<path fill="white" transform="scale(0.332108 0.314315)" d="M1564.54 456.543C1566.32 456.53 1567.25 457.115 1568.85 457.841C1570.59 460.499 1570.54 460.676 1570.38 463.867C1565.42 471.377 1537.79 505.92 1531.25 507.807C1523.55 505.801 1513.76 490.583 1508.5 484.328L1504.87 479.98C1503.22 477.539 1503.28 476.431 1503.85 473.633C1506.28 471.252 1506.4 471.182 1509.77 470.705C1516.67 473.93 1525.93 487.828 1531.13 494.006L1552.52 468.645C1555.49 465.112 1559.22 459.335 1563.18 457.216L1564.54 456.543Z"/>
	<path fill="#ECECEB" transform="scale(0.332108 0.314315)" d="M1573.11 1311.12L1573.69 1318.36L1574.71 1319.18C1577.67 1317.97 1580.52 1316.61 1582.97 1314.5C1592 1306.74 1590.59 1289.76 1591.85 1278.97C1592.45 1273.86 1593.46 1266.98 1592.3 1261.95C1590.35 1253.47 1584.66 1249.31 1577.7 1245.14L1682.7 1244.94C1694.75 1244.9 1715.56 1241.85 1724.7 1250.49C1729.46 1254.98 1731.62 1260.06 1731.64 1266.57C1731.67 1273.7 1730.77 1280.91 1730.1 1288C1729.25 1297.08 1729.67 1306.69 1722.9 1313.72C1717.51 1319.31 1711.47 1319.66 1704.31 1320.98C1690.37 1323.55 1688.25 1334.89 1688.47 1347.36C1688.5 1348.84 1688.81 1349.84 1689.3 1351.23L1688.58 1352.03C1685.83 1356.25 1686.36 1370.86 1685.85 1376.48L1677.09 1476.07L1675.06 1499.02C1674.6 1504.39 1674.57 1509.99 1672.65 1515.08C1670.53 1520.72 1666.97 1524.07 1662.11 1527.36C1660.95 1528.14 1659.04 1529.92 1657.77 1530.34C1653.43 1531.81 1642.34 1530.61 1637.47 1530.62L1564.3 1530.73L1573.11 1311.12Z"/>
	<path fill="#E1E1E1" transform="scale(0.332108 0.314315)" d="M303.639 696.182C308.75 693.682 366.7 695.388 377.218 695.403C376.049 677.764 380.859 658.024 384.126 640.657L398.976 640.666C394.778 625.76 389.38 612.289 381.184 599.112C377.779 593.639 373.499 588.317 370.605 582.608C368.894 579.231 368.247 575.573 368.246 571.81C368.245 568.475 368.821 566.801 371.094 564.396C375.574 566.216 378.771 573.071 382.489 576.495C385.399 579.175 389.613 580.495 392.107 583.478C395.347 587.351 397.681 592.813 400.009 597.308C400.422 576.773 392.773 560.138 388.923 540.536C386.708 529.253 387.542 511.787 394.892 502.441C397.034 499.719 398.564 499.478 401.855 499.145L403.123 500.282C405.151 502.183 405.621 504.069 405.877 506.809C406.806 516.725 399.23 527.259 399.078 537.445C399.037 540.173 399.623 542.048 400.799 544.483C405.891 555.031 407.303 566.146 408.556 577.675C412.579 570.915 416.875 563.644 419.254 556.125C422.351 546.335 420.804 532.606 429.199 525.522C432.903 525.301 433.095 524.828 436.035 527.375C438.726 536.365 435.586 547.861 430.645 555.664C427.464 560.686 423.641 564.469 421.508 570.201C418.381 578.601 418.123 588.894 417.547 597.788C420.412 595.047 423.346 592.34 425.675 589.112C428.494 585.202 432.51 576.542 437.126 575.057C439.077 574.43 439.747 575.272 441.519 576.074C448.14 590.009 423.623 605.651 417.02 615.909C411.953 623.782 410.154 631.593 408.385 640.668L421.422 640.682L426.465 673.232C427.593 680.563 429.47 687.289 427.468 694.642C425.724 696.691 425.002 699.171 423.34 701.238C418.612 707.119 413.037 709.147 405.693 709.668L401.855 709.853C399.817 720.985 401.353 734.948 401.35 746.353L401.334 831.158L401.338 1152.47C401.34 1169.59 399.729 1314.01 402.318 1318.59L404.03 1318.8C393.085 1321.67 383.376 1326.71 377.471 1336.83C373.55 1343.56 372.238 1351.46 371.721 1359.12L401.364 1361.11L401.379 1396.94C401.395 1402.21 400.366 1409.84 402.459 1414.69L398.997 1418.88L401.861 1421.13C403.684 1423.62 405.394 1425.96 406.738 1428.74L407.896 1429.44C412.305 1432.16 416.976 1435.44 417.975 1440.92C418.766 1445.26 417.806 1449.35 415.114 1452.84C411.546 1457.45 405.983 1461.24 401.3 1464.71L401.32 1530.2L304.2 1530.21C302.996 1527.8 303.665 1523.28 303.663 1520.45L303.681 1491.4L303.75 1355.47L303.639 696.182Z"/>
	<path fill="#fe9400" transform="scale(0.332108 0.314315)" d="M401.3 1464.71L360.627 1486.69C357.494 1482.77 354.707 1479.06 352.92 1474.29C348.9 1463.57 350.229 1452.2 354.839 1441.89C359.525 1431.41 367.572 1420.33 378.825 1416.5C386.16 1414.01 392.336 1415.36 398.997 1418.88L401.861 1421.13C403.684 1423.62 405.394 1425.96 406.738 1428.74L407.896 1429.44C412.305 1432.16 416.976 1435.44 417.975 1440.92C418.766 1445.26 417.806 1449.35 415.114 1452.84C411.546 1457.45 405.983 1461.24 401.3 1464.71Z"/>
	<path fill="#7D8689" transform="scale(0.332108 0.314315)" d="M1531.83 1002.58L1536.01 1030.59L1575.42 1025.14L1577.02 1125.23L1573.11 1311.12L1564.3 1530.73L1561.33 1593.58L1541.41 1593.53L1512.55 1593.74L1511.4 1593.91L1509.98 1592.64C1508.5 1585.51 1508.79 1577.51 1508.45 1570.22L1506.57 1531.39L1505.32 1531.31C1495.86 1530.19 1485.66 1530.88 1476.08 1530.89L1418.36 1530.72L1406.96 1592.92C1401.17 1594.31 1391.41 1592.28 1385.28 1591.8L1383.76 1602.5L1353.87 1602.47L1355.45 1590.06C1354.21 1589.71 1353.07 1589.18 1351.88 1588.67C1351.81 1569.9 1355.68 1549.43 1357.78 1530.69L1407.46 1125.5L1415.62 1067.54C1416.92 1058.72 1422.48 1036.91 1418.03 1029.57C1419.97 1027.21 1419.12 1021.4 1419.14 1018.24L1531.83 1002.58Z"/>
	<path fill="#D56B61" transform="scale(0.332108 0.314315)" d="M1355.45 1590.06L1385.28 1591.8L1383.76 1602.5L1353.87 1602.47L1355.45 1590.06Z"/>
	<path fill="#fff" transform="scale(0.332108 0.314315)" d="M1471.4 1240.95C1470.35 1240.67 1470.4 1240.9 1469.86 1239.91C1468.15 1236.78 1468.43 1230.61 1468.22 1227.05C1466.43 1196.39 1470.96 1164.76 1476.96 1134.75C1479.03 1124.4 1480.75 1113.74 1484.31 1103.78L1486.78 1136.96C1487.16 1143.33 1488.1 1150.04 1486.9 1156.35L1486.71 1157.21L1471.4 1240.95Z"/>
	<path fill="#F3F3F3" transform="scale(0.332108 0.314315)" d="M1486.71 1157.21C1487.41 1158.37 1487.69 1158.67 1488.05 1160.16C1489.67 1166.9 1488.8 1176.51 1489.16 1183.56L1492.59 1252.4L1502.06 1442.4L1506.57 1531.39L1505.32 1531.31C1495.86 1530.19 1485.66 1530.88 1476.08 1530.89L1418.36 1530.72L1471.4 1240.95L1486.71 1157.21Z"/>
	<path fill="#ECECEB" transform="scale(0.332108 0.314315)" d="M545.745 627.076C541.143 639.945 542.796 654.763 542.797 668.311L542.851 721.688L542.757 875.215L542.864 899.851L542.758 1053.17L542.869 1077.86L542.754 1230.9L542.673 1317.17L552.346 1325.54L541.807 1339.14C543.386 1342.17 542.871 1345.54 542.863 1348.86L542.794 1367.78C551.716 1371.25 560.185 1375.77 564.096 1385.11C566.209 1390.16 567.843 1399.22 565.487 1404.4L564.941 1405.29C557.581 1405.63 550.015 1403.67 542.912 1401.88C542.825 1405.24 543.629 1410.04 541.323 1412.47C552.833 1414.83 563.62 1418.95 570.413 1429.17C575.298 1436.51 576.297 1444.49 577.296 1453.02C565.688 1454.7 554.572 1455.27 542.836 1455.03C535.88 1454.03 526.925 1453.34 522.369 1447.24C520.755 1445.08 519.979 1441.39 519.177 1438.83C515.677 1453.88 511.682 1463.33 497.99 1471.77L496.382 1472.74L487.789 1463.18C482.99 1484.79 482.326 1506.84 482.042 1528.87L482.002 1536.9L477.846 1536.84L476.096 1536.86L465.411 1536.87L465.103 1530.56C463.114 1500.91 460.859 1469.72 451.18 1441.44C448.299 1433.02 444.715 1423.72 438.456 1417.21C433.942 1412.51 427.545 1409.05 420.879 1409.25C412.652 1409.49 407.073 1415.57 401.861 1421.13L398.997 1418.88L402.459 1414.69C400.366 1409.84 401.395 1402.21 401.379 1396.94L401.364 1361.11L371.721 1359.12C372.238 1351.46 373.55 1343.56 377.471 1336.83C383.376 1326.71 393.085 1321.67 404.03 1318.8L402.318 1318.59C399.729 1314.01 401.34 1169.59 401.338 1152.47L401.334 831.158L401.35 746.353C401.353 734.948 399.817 720.985 401.855 709.853L405.693 709.668C413.037 709.147 418.612 707.119 423.34 701.238C425.002 699.171 425.724 696.691 427.468 694.642C431.775 696.691 439.548 695.55 444.371 695.541L481.604 695.425L481.607 627.015L545.745 627.076Z"/>
	<path fill="#ffbd3d" transform="scale(0.332108 0.314315)" d="M464.711 1321.31L467.157 1317.64L467.624 1318.84C473.066 1333.21 474.761 1350.09 475.998 1365.34C476.519 1371.77 476.46 1378.94 478.092 1385.16C482.444 1370.51 485.141 1356.04 492.143 1342.25L494.055 1347.15C486.522 1362.96 483.033 1380.44 479.991 1397.58C478.274 1399.1 476.686 1400.79 474.598 1401.76C472.882 1374.67 472.47 1347.56 464.711 1321.31Z"/>
	<path fill="#E1E1E1" transform="scale(0.332108 0.314315)" d="M421.377 1137.21C421.984 1138.63 421.789 1141 421.875 1142.58L422.607 1143.07L423.34 1140.49L443.292 1229C442.83 1231.2 443.322 1230.26 441.895 1231.84L421.253 1231.94L421.377 1137.21Z"/>
	<path fill="#ffbd3d" transform="scale(0.332108 0.314315)" d="M464.711 1321.31C461.412 1324.05 458.078 1326.82 453.649 1327.24C446.806 1327.9 440.457 1324.59 435.589 1320C423.928 1309.01 421.373 1292.5 420.712 1277.29C422.9 1275.7 428.136 1275.43 430.875 1275.29C445.235 1274.56 458.667 1279.41 469.276 1289.09C474.296 1293.68 483.505 1302.61 483.439 1309.7C483.415 1312.28 482.623 1312.23 480.891 1313.91C477.429 1314.85 475.068 1314.35 471.575 1313.63L470.215 1313.33L467.157 1317.64L464.711 1321.31Z"/>
	<path fill="#ffbd3d" transform="scale(0.332108 0.314315)" d="M492.143 1342.25C491.061 1338.68 491.07 1334.09 490.897 1330.34C485.912 1328.66 483.133 1327.64 480.651 1322.75C481.539 1319.74 481.869 1319.25 484.425 1317.38C494.303 1310.17 512.562 1307.74 524.377 1310.19L525.879 1310.53C532.169 1311.91 537.015 1314.15 542.673 1317.17L552.346 1325.54L541.807 1339.14C531.881 1348.16 522.729 1355.15 508.594 1354.63C501.861 1354.39 498.576 1351.92 494.055 1347.15L492.143 1342.25Z"/>
	<path fill="#E1E1E1" transform="scale(0.332108 0.314315)" d="M542.758 1053.17C541.065 1040.96 542.264 1027.11 542.277 1014.73L542.174 941.588L527.57 941.643L527.503 1053.69L514.524 1053.71L514.533 918.265L499.474 918.437L499.367 1052.25L498.047 1053.49C494.835 1053.54 491.123 1054.37 488.674 1052.25L488.452 941.624L458.905 941.642L458.74 1023.68L458.714 1043.25C458.708 1046.59 459.205 1050.27 457.739 1053.35C455.04 1053.5 453.819 1054.1 451.524 1052.47L451.238 924.925L421.377 924.917L421.371 899.966L542.864 899.851L542.758 1053.17Z"/>
	<path fill="#E1E1E1" transform="scale(0.332108 0.314315)" d="M542.757 875.215C541.096 863.243 542.229 849.75 542.233 837.582L542.162 763.666L527.562 763.759L527.498 875.816L514.539 875.841L514.524 740.299L499.862 740.289C497.947 743.572 499.428 759.675 499.439 764.205L499.424 850.99L499.407 867.873C499.405 869.45 499.832 872.715 499.4 874.023C499.179 874.693 498.498 875.109 498.047 875.652L488.607 875.69L488.453 763.719L458.718 763.74L458.738 850.067C458.733 855.595 460.389 871.052 457.81 875.488C455.054 875.678 454.027 875.984 451.51 874.726L451.396 746.707L421.875 746.775C419.95 739.587 421.237 729.231 421.203 721.646L542.851 721.688L542.757 875.215Z"/>
	<path fill="#E1E1E1" transform="scale(0.332108 0.314315)" d="M542.869 1077.86L542.754 1230.9C540.771 1219.93 542.222 1206.08 542.236 1194.82L542.222 1120.57C540.489 1119.51 537.53 1120.03 535.498 1120.05L514.76 1120.18L514.756 1199.16C514.749 1208.62 516.513 1222.29 514.16 1231.31C511.659 1232.09 509.392 1231.75 506.836 1231.52C505.283 1229.03 505.874 1225.55 505.872 1222.61L505.858 1200.28L505.78 1096.45L491.064 1096.46L491.011 1231.81C477.652 1231.92 463.449 1232.8 450.219 1231.07C457.54 1228.3 465.514 1226.96 473.163 1225.45L448.756 1116.01L421.326 1121.82L421.297 1078.04L542.869 1077.86Z"/>
	<path fill="#ffbd3d" transform="scale(0.332108 0.314315)" d="M404.03 1318.8C411.395 1318.23 420.015 1316.62 426.53 1320.8C427.332 1322.51 427.936 1322.68 427.229 1324.55C426.622 1326.15 425.917 1327.24 424.924 1328.61L425.68 1329.72C428.932 1334.6 429.622 1337.76 430.014 1343.45L440.602 1359.24C442.632 1359.04 444.013 1358.26 445.801 1357.32L448.73 1357.56C449.689 1359.04 450.505 1360.46 451.247 1362.05L452.303 1362.29C457.823 1363.63 460.648 1365.65 463.465 1370.65C465.091 1373.54 465.519 1376.03 464.474 1379.22C463.231 1383.01 461.142 1385.96 458.652 1389.01C457.673 1390.21 455.329 1392.45 455.048 1393.83C454.588 1396.08 458.593 1406.35 459.395 1409.18L460.309 1408.3C464.997 1403.84 468.153 1402.23 474.598 1401.76C476.686 1400.79 478.274 1399.1 479.991 1397.58C483.033 1380.44 486.522 1362.96 494.055 1347.15C498.576 1351.92 501.861 1354.39 508.594 1354.63C522.729 1355.15 531.881 1348.16 541.807 1339.14C543.386 1342.17 542.871 1345.54 542.863 1348.86L542.794 1367.78C551.716 1371.25 560.185 1375.77 564.096 1385.11C566.209 1390.16 567.843 1399.22 565.487 1404.4L564.941 1405.29C557.581 1405.63 550.015 1403.67 542.912 1401.88C542.825 1405.24 543.629 1410.04 541.323 1412.47C552.833 1414.83 563.62 1418.95 570.413 1429.17C575.298 1436.51 576.297 1444.49 577.296 1453.02C565.688 1454.7 554.572 1455.27 542.836 1455.03C535.88 1454.03 526.925 1453.34 522.369 1447.24C520.755 1445.08 519.979 1441.39 519.177 1438.83C515.677 1453.88 511.682 1463.33 497.99 1471.77L496.382 1472.74L487.789 1463.18C482.99 1484.79 482.326 1506.84 482.042 1528.87L482.002 1536.9L477.846 1536.84L476.096 1536.86L465.411 1536.87L465.103 1530.56C463.114 1500.91 460.859 1469.72 451.18 1441.44C448.299 1433.02 444.715 1423.72 438.456 1417.21C433.942 1412.51 427.545 1409.05 420.879 1409.25C412.652 1409.49 407.073 1415.57 401.861 1421.13L398.997 1418.88L402.459 1414.69C400.366 1409.84 401.395 1402.21 401.379 1396.94L401.364 1361.11L371.721 1359.12C372.238 1351.46 373.55 1343.56 377.471 1336.83C383.376 1326.71 393.085 1321.67 404.03 1318.8Z"/>
	<path fill="#F3F3F3" transform="scale(0.332108 0.314315)" d="M516.375 1415.53C518.23 1414.92 519.301 1414.94 521.224 1415.23C521.595 1418.72 521.883 1419.31 523.926 1422.18C523.307 1425 521.462 1426.91 519.763 1429.19L519.198 1431.15C517.758 1426.26 516.542 1420.63 516.375 1415.53Z"/>
	<path fill="#F3F3F3" transform="scale(0.332108 0.314315)" d="M541.323 1412.47C537.147 1412.07 532.954 1412.7 528.809 1412.31C524.321 1411.9 520.899 1411.13 516.278 1411.52L514.991 1411.64L511.539 1407.03C506.438 1399.47 501.362 1396.52 492.509 1394.85L491.15 1394.61C491.579 1393.38 492.095 1392.26 492.708 1391.11C496.835 1383.37 503.547 1377.27 512.207 1375.03C516.726 1373.87 523.928 1373.36 528.033 1375.98C525.804 1380.48 523.812 1386.97 525.771 1391.93C527.83 1397.14 536.875 1400.02 541.618 1401.49L542.912 1401.88C542.825 1405.24 543.629 1410.04 541.323 1412.47Z"/>
	<path fill="#F3F3F3" transform="scale(0.332108 0.314315)" d="M541.807 1339.14C543.386 1342.17 542.871 1345.54 542.863 1348.86L542.794 1367.78C538.857 1366.98 535.383 1365.87 531.506 1367.47C530.313 1368.95 530.107 1369.99 529.785 1371.84C518.498 1370.01 508.838 1370.24 499.274 1377.45C494.919 1380.74 492.167 1384.24 489.755 1389.03C489.114 1390.3 487.691 1394.13 486.656 1395.02C485.593 1395.93 481.453 1397.02 479.991 1397.58C483.033 1380.44 486.522 1362.96 494.055 1347.15C498.576 1351.92 501.861 1354.39 508.594 1354.63C522.729 1355.15 531.881 1348.16 541.807 1339.14Z"/>
	<path fill="#F3F3F3" transform="scale(0.332108 0.314315)" d="M401.364 1361.11C409.159 1360.47 420.564 1360.35 425.945 1353.74C427.243 1352.15 428.263 1350.33 429.261 1348.54L438.185 1362.65C432.669 1370.38 427.295 1378.83 429.1 1388.86L429.357 1390.14L429.603 1391.46C430.956 1398.11 434.792 1402.69 439.121 1407.63L452.118 1396.27L459.188 1424.33L464.999 1433.33L471.73 1443.36C472.897 1444.85 478.473 1450.89 478.622 1452.24L484.688 1459.72L487.789 1463.18C482.99 1484.79 482.326 1506.84 482.042 1528.87L482.002 1536.9L477.846 1536.84L476.096 1536.86L465.411 1536.87L465.103 1530.56C463.114 1500.91 460.859 1469.72 451.18 1441.44C448.299 1433.02 444.715 1423.72 438.456 1417.21C433.942 1412.51 427.545 1409.05 420.879 1409.25C412.652 1409.49 407.073 1415.57 401.861 1421.13L398.997 1418.88L402.459 1414.69C400.366 1409.84 401.395 1402.21 401.379 1396.94L401.364 1361.11Z"/>
	<path fill="#ffbd3d" transform="scale(0.332108 0.314315)" d="M402.459 1414.69C408.519 1409.62 414.909 1404.66 423.394 1405.64C431.986 1406.63 438.826 1411.16 443.952 1417.98C456.085 1434.13 460.42 1458.82 463.448 1478.25C464.564 1485.41 466.075 1492.83 466.309 1500.07L467.313 1500.49L467.228 1499.62L459.188 1424.33L464.999 1433.33L471.73 1443.36C472.897 1444.85 478.473 1450.89 478.622 1452.24L484.688 1459.72L487.789 1463.18C482.99 1484.79 482.326 1506.84 482.042 1528.87L482.002 1536.9L477.846 1536.84L476.096 1536.86L465.411 1536.87L465.103 1530.56C463.114 1500.91 460.859 1469.72 451.18 1441.44C448.299 1433.02 444.715 1423.72 438.456 1417.21C433.942 1412.51 427.545 1409.05 420.879 1409.25C412.652 1409.49 407.073 1415.57 401.861 1421.13L398.997 1418.88L402.459 1414.69Z"/>
	<path fill="#F3F3F3" transform="scale(0.332108 0.314315)" d="M471.73 1443.36L470.252 1471.19L469.474 1471.05L464.999 1433.33L471.73 1443.36Z"/>
	<path fill="#F3F3F3" transform="scale(0.332108 0.314315)" d="M478.622 1452.24L484.688 1459.72C481.012 1474.97 479.423 1491.27 478.68 1506.92L478.404 1526.7C478.385 1529.91 478.865 1533.8 477.846 1536.84L476.096 1536.86C474.87 1533.96 475.605 1530.21 475.78 1527.12L476.966 1503.92L478.622 1452.24Z"/>
	<path fill="#ffbd3d" transform="scale(0.332108 0.314315)" d="M484.688 1459.72L487.789 1463.18C482.99 1484.79 482.326 1506.84 482.042 1528.87L482.002 1536.9L477.846 1536.84C478.865 1533.8 478.385 1529.91 478.404 1526.7L478.68 1506.92C479.423 1491.27 481.012 1474.97 484.688 1459.72Z"/>
	<path fill="white" transform="scale(0.332108 0.314315)" d="M1448.96 551C1455.31 559.342 1462.48 565.905 1473.3 567.415C1486.04 569.194 1500.1 568.148 1513.01 568.115L1504.94 600.008L1528.83 576.182C1530.98 574.036 1534.36 569.595 1536.88 568.147C1537.79 567.623 1544.22 568.153 1545.57 568.154L1581.87 568.11C1589.98 568.079 1598.97 568.888 1606.71 566C1614.41 563.122 1620.39 557.762 1625.03 551.065L1645.32 551.312L1645.36 825.06L1615.31 825.253L1626.8 843.722L1632.91 854.781L1645.68 854.502C1645.19 862.107 1647.17 872.779 1642.63 879.08L1642.61 890.798C1635.93 916.003 1621.4 936.543 1605.58 956.838L1601.07 961.9C1598 961.357 1595.53 959.587 1592.9 958.01L1587.59 966.695C1589.65 969.085 1592.79 971.378 1592.29 974.72L1591.47 977.793L1586.54 989.619C1580.94 1001.08 1583.34 1011.4 1584.14 1023.63L1575.42 1025.14L1536.01 1030.59L1531.83 1002.58L1419.14 1018.24L1399.38 955.613C1397.19 946.82 1398.5 935.271 1398.58 926.16C1398.79 902.735 1398.84 878.888 1400.93 855.543C1397.93 850.701 1397.38 841.613 1396.43 835.995C1392.66 813.734 1388.89 791.53 1390.46 768.878C1386.5 770.35 1381.78 771.808 1378.3 774.203C1373.55 777.464 1369.05 783.717 1365.37 788.107L1335.97 825.264L1317.31 824.966L1317.35 709.254L1317.34 661.549C1317.34 651.119 1318.89 638.08 1314.67 628.449C1311.73 621.755 1306.04 616.238 1299.28 613.522L1297.91 612.999C1291.69 610.516 1283.9 611.265 1277.26 611.293L1277.31 551.148L1448.96 551Z"/>
	<path fill="#000" transform="scale(0.332108 0.314315)" d="M1382.89 658.255C1382.99 656.294 1383.05 654.417 1383.42 652.488C1383.93 649.797 1382.96 646.822 1383.06 644.043C1383.26 638.768 1385.52 633.945 1384.07 628.693L1382.85 628.418C1379.57 631.425 1378.12 634.092 1376.45 638.184C1373.7 633.809 1373.73 627.431 1375.02 622.559C1377.02 615.055 1382.88 609.573 1389.5 605.938C1395.31 602.742 1402.05 600.928 1408.41 599.121C1405.97 597.676 1404 597.456 1401.26 597.168C1404.76 593.163 1420.54 591.19 1426.03 590.844C1442.2 589.827 1458.84 591.31 1471.68 602.267C1475.24 605.3 1477.79 609.115 1479.18 613.577C1479.71 615.261 1479.7 617.525 1480.58 619.032C1483.87 624.636 1487.07 625.925 1487.27 633.301C1487.54 642.869 1481.93 652.432 1475.62 659.252C1473.43 658.264 1470.63 656.711 1468.23 656.47C1462.84 655.929 1460.08 658.4 1456.36 661.79L1455.16 662.894C1452.24 655.794 1450.71 649.228 1449.58 641.698C1442.08 637.663 1436.17 633.213 1430.13 627.206C1422.35 630.009 1415.81 632.299 1409.59 638.023L1408.69 638.871C1407.93 638.338 1407.38 638.039 1406.81 637.207C1405.45 635.195 1405.1 633.206 1405.49 630.859L1405.86 628.906L1404.79 628.042C1399.19 629.985 1395.17 632.287 1391.9 637.354C1391.01 638.734 1391.76 638.027 1389.65 638.954L1388.18 639.587C1387.21 642.744 1386.11 645.725 1386.12 649.068L1391.6 647.38L1392.72 648.926C1388.58 651.506 1386.22 654.822 1382.89 658.255Z"/>
	<path fill="#FF8A7D" transform="scale(0.332108 0.314315)" d="M1382.89 658.255C1386.22 654.822 1388.58 651.506 1392.72 648.926L1391.6 647.38L1386.12 649.068C1386.11 645.725 1387.21 642.744 1388.18 639.587L1389.65 638.954C1391.76 638.027 1391.01 638.734 1391.9 637.354C1395.17 632.287 1399.19 629.985 1404.79 628.042L1405.86 628.906L1405.49 630.859C1405.1 633.206 1405.45 635.195 1406.81 637.207C1407.38 638.039 1407.93 638.338 1408.69 638.871L1409.59 638.023C1415.81 632.299 1422.35 630.009 1430.13 627.206C1436.17 633.213 1442.08 637.663 1449.58 641.698C1450.71 649.228 1452.24 655.794 1455.16 662.894L1456.36 661.79C1460.08 658.4 1462.84 655.929 1468.23 656.47C1470.63 656.711 1473.43 658.264 1475.62 659.252C1478 663.851 1479.7 668.556 1478.18 673.785C1476.76 678.664 1474.48 682.866 1470.68 686.275C1469.14 687.662 1466.03 689.606 1465.05 691.406C1463.36 694.519 1464.35 700.341 1464.81 703.75C1466.33 715.112 1468.29 727.056 1473.5 737.394C1475.9 742.159 1479.34 747.074 1484.39 749.207C1476.86 760.535 1467.12 769.919 1453.12 772.385C1447.65 773.349 1441.42 773.663 1436.85 769.968C1432.62 766.548 1432.61 761.433 1430.81 756.776C1433.26 755.518 1435.62 752.962 1436.94 750.562C1440.11 744.79 1438.38 737.735 1436.74 731.768L1433.91 724.998L1428.71 725.303C1417.66 725.172 1407.01 721.066 1399.23 713.098C1385.97 699.505 1384.4 677.133 1384.47 659.18L1382.89 658.255Z"/>
	<path fill="#D56B61" transform="scale(0.332108 0.314315)" d="M1433.91 724.998L1435.45 724.566C1438.54 723.683 1441.56 722.765 1444.41 721.257C1446.08 720.375 1448.85 718.236 1450.62 718.178C1446.95 723.976 1442.8 728.455 1436.74 731.768L1433.91 724.998Z"/>
	<path fill="#D56B61" transform="scale(0.332108 0.314315)" d="M1404.66 665.425C1405.41 670.313 1408.47 683.682 1405.97 687.143L1399.9 687.463C1397.6 686.788 1397.75 687.304 1396.43 685.059C1400.19 678.834 1402.44 672.298 1404.66 665.425Z"/>
	<path fill="#ffbd78" transform="scale(0.332108 0.314315)" d="M1490.42 748.327C1494.42 746.288 1493.62 741.889 1495.31 737.793C1499.55 736.556 1502.86 738.653 1506.56 740.682C1508.53 741.767 1522.83 733.207 1528.16 733.684C1531.75 736.963 1531.9 740.822 1533.48 745.2C1537.71 746.836 1542.4 747.426 1546.3 749.551C1547.76 750.346 1549.35 750.762 1550.92 751.291C1559.94 754.33 1567.29 762.918 1573.51 769.864C1588.93 787.08 1602.77 805.852 1615.31 825.253L1626.8 843.722L1632.91 854.781L1645.68 854.502C1645.19 862.107 1647.17 872.779 1642.63 879.08L1642.61 890.798C1635.93 916.003 1621.4 936.543 1605.58 956.838L1601.07 961.9C1598 961.357 1595.53 959.587 1592.9 958.01L1587.59 966.695C1589.65 969.085 1592.79 971.378 1592.29 974.72L1591.47 977.793L1586.54 989.619C1580.94 1001.08 1583.34 1011.4 1584.14 1023.63L1575.42 1025.14L1536.01 1030.59L1531.83 1002.58L1419.14 1018.24L1399.38 955.613C1397.19 946.82 1398.5 935.271 1398.58 926.16C1398.79 902.735 1398.84 878.888 1400.93 855.543C1397.93 850.701 1397.38 841.613 1396.43 835.995C1392.66 813.734 1388.89 791.53 1390.46 768.878L1391.54 765.625C1392.76 761.833 1393.83 758.214 1397.25 755.78C1400.51 753.457 1403.2 753.898 1406.77 754.889L1410.16 755.716C1412.36 754.405 1415.38 752.322 1417.97 751.993C1423.13 751.337 1424.05 753.096 1427.61 756.122L1428.59 756.933L1430.81 756.776C1432.61 761.433 1432.62 766.548 1436.85 769.968C1441.42 773.663 1447.65 773.349 1453.12 772.385C1467.12 769.919 1476.86 760.535 1484.39 749.207L1490.42 748.327Z"/>
	<path fill="#111999" transform="scale(0.332108 0.314315)" d="M1390.46 768.878L1391.54 765.625C1392.76 761.833 1393.83 758.214 1397.25 755.78C1400.51 753.457 1403.2 753.898 1406.77 754.889L1410.16 755.716C1412.36 754.405 1415.38 752.322 1417.97 751.993C1423.13 751.337 1424.05 753.096 1427.61 756.122L1428.59 756.933C1410.16 771.631 1404.07 826.298 1401.55 848.947L1400.93 855.543C1397.93 850.701 1397.38 841.613 1396.43 835.995C1392.66 813.734 1388.89 791.53 1390.46 768.878Z"/>
	<path fill="#ffbd3d" transform="scale(0.332108 0.314315)" d="M1490.42 748.327C1494.42 746.288 1493.62 741.889 1495.31 737.793C1499.55 736.556 1502.86 738.653 1506.56 740.682C1508.53 741.767 1522.83 733.207 1528.16 733.684C1531.75 736.963 1531.9 740.822 1533.48 745.2C1537.71 746.836 1542.4 747.426 1546.3 749.551C1547.76 750.346 1549.35 750.762 1550.92 751.291C1559.94 754.33 1567.29 762.918 1573.51 769.864C1588.93 787.08 1602.77 805.852 1615.31 825.253L1626.8 843.722L1632.91 854.781L1645.68 854.502C1645.19 862.107 1647.17 872.779 1642.63 879.08L1642.61 890.798C1635.93 916.003 1621.4 936.543 1605.58 956.838L1601.07 961.9C1598 961.357 1595.53 959.587 1592.9 958.01L1587.59 966.695C1589.65 969.085 1592.79 971.378 1592.29 974.72L1591.47 977.793L1586.54 989.619C1580.94 1001.08 1583.34 1011.4 1584.14 1023.63L1575.42 1025.14L1536.01 1030.59L1531.83 1002.58L1507.14 846.032C1498.79 814.98 1493.38 781.639 1492.76 749.512L1490.42 748.327Z"/>
	<path fill="#E1E1E1" transform="scale(0.332108 0.314315)" d="M1569.03 842.892C1573.77 845.361 1577.73 850.588 1581.43 854.432L1572.27 854.643C1571.45 856.207 1571.2 856.806 1570.92 858.449L1570.52 857.498L1569.03 842.892Z"/>
	<path fill="white" transform="scale(0.332108 0.314315)" d="M1632.91 854.781L1645.68 854.502C1645.19 862.107 1647.17 872.779 1642.63 879.08C1640.36 870.538 1636.68 862.743 1632.91 854.781Z"/>
	<path fill="#FF8A7D" transform="scale(0.332108 0.314315)" d="M1587.59 966.695C1581.64 961.074 1574.61 957.839 1567.26 954.502L1572.77 946.058L1592.9 958.01L1587.59 966.695Z"/>
	<path fill="#fe9400" transform="scale(0.332108 0.314315)" d="M1570.52 857.498L1569.09 856.788C1557.33 850.528 1551.88 835.15 1548.27 823.302L1549.01 823.401C1555.56 828.91 1564.68 835.582 1569.03 842.892L1570.52 857.498Z"/>
	<path fill="white" transform="scale(0.332108 0.314315)" d="M1581.43 854.432C1587.94 861.576 1601.51 874.271 1602.78 883.971C1598.34 900.065 1587.64 918.149 1577.97 931.8L1570.92 858.449C1571.2 856.806 1571.45 856.207 1572.27 854.643L1581.43 854.432Z"/>
	<path fill="#000" transform="scale(0.332108 0.314315)" d="M1490.42 748.327C1494.42 746.288 1493.62 741.889 1495.31 737.793C1499.55 736.556 1502.86 738.653 1506.56 740.682C1508.53 741.767 1522.83 733.207 1528.16 733.684C1531.75 736.963 1531.9 740.822 1533.48 745.2C1528.6 751.187 1525.54 759.43 1522.97 766.655C1516.53 784.777 1513.01 803.963 1510.25 822.954C1509.14 830.585 1508.91 838.539 1507.14 846.032C1498.79 814.98 1493.38 781.639 1492.76 749.512L1490.42 748.327Z"/>
	<path fill="#F3F3F3" transform="scale(0.332108 0.314315)" d="M482.042 1528.87C485.447 1530.83 486.71 1530.82 490.466 1530.9L679.915 1531L1031.41 1531.04L1246.82 1530.89L1317.89 1530.89L1357.78 1530.69C1355.68 1549.43 1351.81 1569.9 1351.88 1588.67C1353.07 1589.18 1354.21 1589.71 1355.45 1590.06L1353.87 1602.47L1383.76 1602.5L1385.28 1591.8C1391.41 1592.28 1401.17 1594.31 1406.96 1592.92L1418.36 1530.72L1476.08 1530.89C1485.66 1530.88 1495.86 1530.19 1505.32 1531.31L1506.57 1531.39L1508.45 1570.22C1508.79 1577.51 1508.5 1585.51 1509.98 1592.64L1511.4 1593.91L1512.55 1593.74L1541.41 1593.53L1541.44 1602.5C1541.33 1612.46 1540.42 1623.33 1541.35 1633.19L1546.88 1632.89C1580.21 1634.35 1754.7 1643.07 1775.14 1663.24C1775.31 1665.06 1775.77 1665.61 1774.65 1667.19C1772.8 1669.79 1769.18 1671.12 1766.28 1672.16C1754.93 1676.25 1742.34 1678.41 1730.47 1680.35C1667.3 1690.66 1602.24 1694.25 1538.39 1697.65L1275.39 1707.28L978.543 1710.21L422.861 1695.24C390.22 1693.24 247.069 1684.6 227.264 1669.01C224.756 1667.04 224.894 1666.55 224.657 1663.57C233.036 1654.18 257.081 1651.47 269.226 1649.56L352.399 1639.9C368.766 1638.61 386.3 1638.47 402.421 1635.92L403.875 1632.85L408.453 1666.98L532.413 1666.97L537.626 1628.6L546.69 1562.38C551.489 1562.4 556.336 1562.04 560.002 1558.52C565.847 1552.9 564.408 1544.26 564.321 1536.87L482.002 1536.9L482.042 1528.87Z"/>
	<path fill="#1B2F35" transform="scale(0.332108 0.314315)" d="M1379.83 1632.79L1382.81 1633.74C1386.95 1641.17 1389.17 1654.11 1390.65 1662.6C1389.59 1665.03 1389.53 1665.07 1387.21 1666.37L1319.5 1666.86C1310.78 1666.87 1301.26 1667.83 1292.61 1666.82C1289.96 1666.51 1287.21 1665.46 1285.28 1663.57C1282.81 1661.16 1282.39 1659.09 1282.26 1655.76C1287.64 1650.65 1306.54 1649.42 1314.45 1647.71C1321.62 1646.15 1328.39 1643.95 1334.75 1640.29L1334.47 1639.18C1337.23 1638.48 1339.26 1638.64 1340.95 1636.23C1339.7 1635.51 1338.94 1635.11 1338.01 1633.98C1338.55 1632.25 1338.03 1631.98 1337.35 1630.37L1343.04 1635.45L1345.52 1633.97L1348.67 1633.75L1379.83 1632.79Z"/>
	<path fill="#1B2F35" transform="scale(0.332108 0.314315)" d="M1499.23 1638.87C1501.93 1638.27 1503.37 1638.58 1505.04 1636.23L1502.05 1634.45L1502.59 1633.12L1501.35 1630.37C1503.34 1632.19 1505.22 1634.85 1507.94 1635.08L1509.43 1633.13L1511.66 1633.74L1541.35 1633.19L1546.88 1632.89C1549.15 1638.94 1556.13 1659.02 1554.15 1664.55C1553.35 1665.11 1552.67 1665.89 1551.76 1666.24C1548.55 1667.46 1538.4 1666.39 1534.43 1666.46L1477.97 1666.95C1470.88 1666.9 1463.04 1667.59 1456.05 1666.76C1453.52 1666.46 1450.02 1664.68 1448.45 1662.6C1446.57 1660.09 1446.41 1658.44 1446.56 1655.42C1449.75 1652.41 1454.96 1652.24 1459.14 1651.48C1470.31 1649.45 1481.68 1647.89 1492.25 1643.55C1495.17 1642.34 1497.61 1641.82 1499.23 1638.87Z"/>
	<path fill="white" transform="scale(0.332108 0.314315)" d="M1418.36 1530.72L1476.08 1530.89C1485.66 1530.88 1495.86 1530.19 1505.32 1531.31L1506.57 1531.39L1508.45 1570.22C1508.79 1577.51 1508.5 1585.51 1509.98 1592.64L1511.4 1593.91L1512.55 1593.74L1541.41 1593.53L1541.44 1602.5C1541.33 1612.46 1540.42 1623.33 1541.35 1633.19L1511.66 1633.74L1509.43 1633.13L1507.94 1635.08C1505.22 1634.85 1503.34 1632.19 1501.35 1630.37L1502.59 1633.12L1502.05 1634.45L1505.04 1636.23C1503.37 1638.58 1501.93 1638.27 1499.23 1638.87L1497.84 1638.19C1495.71 1637.1 1494.41 1636.57 1493.64 1634.28C1495.71 1634.27 1495.71 1634.52 1497.55 1633.3L1497.07 1631.84L1495.12 1631.36C1484.81 1627.39 1469.36 1628.84 1458.19 1628.34L1380.28 1625.45L1383.76 1602.5L1385.28 1591.8C1391.41 1592.28 1401.17 1594.31 1406.96 1592.92L1418.36 1530.72Z"/>
	<path fill="#FF8A7D" transform="scale(0.332108 0.314315)" d="M1512.55 1593.74L1541.41 1593.53L1541.44 1602.5C1541.33 1612.46 1540.42 1623.33 1541.35 1633.19L1511.66 1633.74L1511.4 1593.91L1512.55 1593.74Z"/>
	<path fill="#D56B61" transform="scale(0.332108 0.314315)" d="M1512.55 1593.74L1541.41 1593.53L1541.44 1602.5L1520.13 1602.49C1517.53 1602.48 1514.99 1603.06 1512.83 1601.56L1512.55 1593.74Z"/>
	<path fill="white" transform="scale(0.332108 0.314315)" d="M482.042 1528.87C485.447 1530.83 486.71 1530.82 490.466 1530.9L679.915 1531L1031.41 1531.04L1246.82 1530.89L1317.89 1530.89L1357.78 1530.69C1355.68 1549.43 1351.81 1569.9 1351.88 1588.67C1353.07 1589.18 1354.21 1589.71 1355.45 1590.06L1353.87 1602.47L1383.76 1602.5L1380.28 1625.45C1379.95 1627.81 1379.2 1630.48 1379.83 1632.79L1348.67 1633.75L1345.52 1633.97C1344.97 1631.75 1344.2 1628.73 1342.55 1627.08C1341.44 1625.97 1339.93 1624.87 1338.38 1624.54C1327.9 1622.32 1314.35 1623.24 1303.52 1623.05L1246.48 1621.88L803.518 1621.04L621.868 1625.33L537.626 1628.6L546.69 1562.38C551.489 1562.4 556.336 1562.04 560.002 1558.52C565.847 1552.9 564.408 1544.26 564.321 1536.87L482.002 1536.9L482.042 1528.87Z"/>
	<path fill="#FF8A7D" transform="scale(0.332108 0.314315)" d="M1348.67 1633.75C1352.1 1625.13 1352.45 1611.91 1353.87 1602.47L1383.76 1602.5L1380.28 1625.45C1379.95 1627.81 1379.2 1630.48 1379.83 1632.79L1348.67 1633.75Z"/>
	<path fill="rgb(254, 148, 0, 0.3)" transform="scale(0.332108 0.314315)" d="M805.699 611.294L969.474 611.517L970.985 611.166L1252.5 611.299L1270.12 611.296L1277.26 611.293C1283.9 611.265 1291.69 610.516 1297.91 612.999L1299.28 613.522C1306.04 616.238 1311.73 621.755 1314.67 628.449C1318.89 638.08 1317.34 651.119 1317.34 661.549L1317.35 709.254L1317.31 824.966L1335.97 825.264L1365.37 788.107C1369.05 783.717 1373.55 777.464 1378.3 774.203C1381.78 771.808 1386.5 770.35 1390.46 768.878C1388.89 791.53 1392.66 813.734 1396.43 835.995C1397.38 841.613 1397.93 850.701 1400.93 855.543C1398.84 878.888 1398.79 902.735 1398.58 926.16C1398.5 935.271 1397.19 946.82 1399.38 955.613L1419.14 1018.24C1419.12 1021.4 1419.97 1027.21 1418.03 1029.57C1422.48 1036.91 1416.92 1058.72 1415.62 1067.54L1407.46 1125.5L1357.78 1530.69L1317.89 1530.89L1246.82 1530.89L1031.41 1531.04L679.915 1531L490.466 1530.9C486.71 1530.82 485.447 1530.83 482.042 1528.87C482.326 1506.84 482.99 1484.79 487.789 1463.18L496.382 1472.74L497.99 1471.77C511.682 1463.33 515.677 1453.88 519.177 1438.83C519.979 1441.39 520.755 1445.08 522.369 1447.24C526.925 1453.34 535.88 1454.03 542.836 1455.03C554.572 1455.27 565.688 1454.7 577.296 1453.02C576.297 1444.49 575.298 1436.51 570.413 1429.17C563.62 1418.95 552.833 1414.83 541.323 1412.47C543.629 1410.04 542.825 1405.24 542.912 1401.88C550.015 1403.67 557.581 1405.63 564.941 1405.29L565.487 1404.4C567.843 1399.22 566.209 1390.16 564.096 1385.11C560.185 1375.77 551.716 1371.25 542.794 1367.78L542.863 1348.86C542.871 1345.54 543.386 1342.17 541.807 1339.14L552.346 1325.54L542.673 1317.17L542.754 1230.9L542.869 1077.86L542.758 1053.17L542.864 899.851L542.757 875.215L542.851 721.688L542.797 668.311C542.796 654.763 541.143 639.945 545.745 627.076C547.61 624.151 549.789 621.458 552.246 619.004C561.68 609.583 574.465 611.259 586.59 611.243L613.864 611.299L638.869 611.187L665.072 611.297L676.331 611.291L794.45 611.297L805.699 611.294Z"/>
	<path fill="#fe9400" transform="scale(0.332108 0.314315)" d="M871.245 688.965C873.533 688.743 873.069 688.355 875.06 689.941C875.144 697.102 876.659 707.72 874.208 714.355C872.255 714.461 872.517 714.639 870.605 713.578C870.505 706.173 869.069 695.966 871.245 688.965Z"/>
	<path fill="#ffbd3d" transform="scale(0.332108 0.314315)" d="M962.965 688.965L965.829 688.755L967.14 689.941L967.193 703.125C967.543 706.792 968.414 707.629 971.191 709.927C974.363 710.16 976.164 710.356 979.004 708.59C982.584 703.103 981.683 696.058 981.934 689.549L983.887 688.67L986.091 689.516L986.396 695.068C986.436 701.051 987.219 708.31 985.84 714.103L983.398 714.475L981.399 712.211L980.687 712.516L979.492 713.003C976.307 714.375 973.743 715.361 970.215 714.401C967.327 713.615 964.851 712.028 963.517 709.261C961.302 704.668 961.469 693.821 962.965 688.965Z"/>
	<path fill="#ffbd3d" transform="scale(0.332108 0.314315)" d="M917.829 688.965L920.654 688.844L922.26 690.918C925.935 689.01 929.595 687.785 933.783 688.729C936.975 689.449 939.131 691.623 940.562 694.483C942.005 697.367 941.87 711.124 940.624 714.127C938.382 714.59 938.551 714.619 936.627 713.379L936.513 699.707C936.452 698.853 936.439 697.757 936.063 696.974C935.348 695.483 934.056 694.043 932.5 693.479C930.092 692.607 927.372 692.658 925.187 694.147C919.875 697.769 922.037 708.085 921.387 713.874L918.945 714.561L917.113 713.379C917.024 706.071 915.59 695.841 917.829 688.965Z"/>
	<path fill="#fe9400" transform="scale(0.332108 0.314315)" d="M845.71 681.152L846.801 680.847C851.969 679.771 857.994 680.142 862.462 683.105C862.261 685.543 862.287 685.075 860.84 686.72C857.619 685.399 854.133 684.202 850.586 684.561C847.497 684.873 846.369 686.009 844.345 688.194C843.876 695.736 854.188 695.027 859.483 697.558C861.77 698.652 862.712 700.182 863.951 702.253C864.271 705.089 864.664 707.222 863.014 709.775C860.965 712.948 857.278 713.98 853.867 714.931C848.192 714.927 843.685 714.085 838.898 710.938C838.631 708.823 839.2 708.739 840.332 707.032C843.39 708.597 847.069 710.471 850.586 710.488C854.737 710.509 856.178 709.682 859.101 706.93L859.168 704.102C854.812 698.324 845.682 700.687 840.96 695.2C839.211 693.167 838.679 690.178 839.355 687.612C840.297 684.039 842.856 682.943 845.71 681.152Z"/>
	<path fill="#fe9400" transform="scale(0.332108 0.314315)" d="M995.842 688.965L998.76 688.836L1000.33 691.071C1004.35 688.923 1008.49 687.529 1013.04 689.015C1016.43 690.122 1019.57 693.055 1020.85 696.389C1022.12 699.692 1021.98 704.88 1020.24 708.018C1018.21 711.688 1015.62 713.134 1011.74 714.355C1008.95 714.832 1006.47 714.832 1003.88 713.571C1002.36 712.833 1002.04 712.669 1000.25 712.402L999.561 723.199L996.582 723.7L995.075 722.168C995.028 712.841 993.193 697.634 995.842 688.965Z"/>
	<path fill="#000" transform="scale(0.332108 0.314315)" d="M1006.71 692.871C1007.54 692.718 1007.8 692.619 1008.76 692.745C1011.52 693.111 1014.39 694.781 1015.74 697.266C1016.84 699.295 1017.05 702.915 1016.11 705.106C1014.82 708.11 1013.03 708.896 1010.25 710.108L1005.86 710.007C1003.33 708.725 1001.61 707.902 1000.49 705.064C999.613 702.846 999.787 699.33 1000.86 697.266C1002.19 694.695 1004.22 693.909 1006.71 692.871Z"/>
	<path fill="#ffbd3d" transform="scale(0.332108 0.314315)" d="M890.602 688.965C894.946 688.077 898.105 688.443 901.966 690.666L902.832 691.19L904.546 688.965L907.209 688.82L908.339 690.43C908.37 697.994 910.095 710.985 907.106 717.773C906.035 720.204 903.585 722.342 901.06 723.145C895.567 724.89 889.236 723.758 884.194 721.272L883.319 719.238L884.976 717.058C886.991 717.548 886.379 717.29 887.809 717.919C890.16 718.954 892.195 719.646 894.799 719.723C898.301 719.827 899.982 718.639 902.43 716.309C903.211 713.888 903.387 713.434 902.832 710.982C899.004 712.884 893.675 714.245 889.497 712.524C886.563 711.316 884.167 709.437 882.761 706.549C881.288 703.522 881.092 698.868 882.461 695.742C884.04 692.135 887.138 690.389 890.602 688.965Z"/>
	<path fill="#AACBFE" transform="scale(0.332108 0.314315)" d="M893.463 692.871C894.382 692.716 894.408 692.665 895.499 692.755C898.44 692.997 900.866 694.32 902.506 696.777C904.026 699.053 903.456 701.53 903.042 704.033C901.088 706.904 900.208 707.663 896.973 708.927C895.835 709.01 895.249 709.096 894.043 708.956C891.223 708.629 888.722 707.093 887.323 704.59C886.053 702.317 886.66 699.935 887.048 697.523C889.149 694.672 890.11 694.013 893.463 692.871Z"/>
	<path fill="#FF8A7D" transform="scale(0.332108 0.314315)" d="M1191.77 826.931C1206.18 827.777 1220.49 837.042 1235.15 836.941L1229.18 860.044C1222.52 858.191 1217.42 860.387 1210.73 860.429C1204.27 860.47 1198.26 859.393 1191.67 859.751C1187.84 860.065 1183.4 860.892 1179.62 860.195L1165.93 834.403C1173.78 832.084 1183.11 830.685 1190.55 827.475L1191.77 826.931Z"/>
	<path fill="#88A3D0" transform="scale(0.332108 0.314315)" d="M668.111 1411.99L1192.03 1412.19L1191.35 1416.99L1189.94 1417.83L783.114 1417.9L696.721 1417.9L676.162 1417.9C673.571 1417.9 670.784 1418.35 668.457 1417.05L668.111 1411.99Z"/>
	<path fill="#ffbd3d" transform="scale(0.332108 0.314315)" d="M1390.46 768.878C1388.89 791.53 1392.66 813.734 1396.43 835.995C1397.38 841.613 1397.93 850.701 1400.93 855.543C1398.84 878.888 1398.79 902.735 1398.58 926.16C1398.5 935.271 1397.19 946.82 1399.38 955.613L1419.14 1018.24C1419.12 1021.4 1419.97 1027.21 1418.03 1029.57C1422.48 1036.91 1416.92 1058.72 1415.62 1067.54L1407.46 1125.5L1317.3 1125.2L1317.31 977.94L1317.31 957.803L1317.29 888.728C1286.68 885.256 1256.94 878.132 1227.37 869.581C1226.64 867.427 1228.57 862.421 1229.18 860.044L1235.15 836.941C1240.79 833.673 1303.66 846.57 1317.51 845.608L1317.31 824.966L1335.97 825.264L1365.37 788.107C1369.05 783.717 1373.55 777.464 1378.3 774.203C1381.78 771.808 1386.5 770.35 1390.46 768.878Z"/>
	<path fill="#F3F3F3" transform="scale(0.332108 0.314315)" d="M1317.31 824.966L1335.97 825.264C1332.33 829.902 1322.73 844.488 1317.51 845.608L1317.31 824.966Z"/>
	<path fill="#fe9400" transform="scale(0.332108 0.314315)" d="M1364.59 863.416C1363.98 849.246 1371.51 829.582 1378.82 817.73L1379.9 847.993L1364.59 863.416Z"/>
	<path fill="#fe9400" transform="scale(0.332108 0.314315)" d="M1399.38 955.613L1419.14 1018.24C1419.12 1021.4 1419.97 1027.21 1418.03 1029.57L1402.42 1033.8L1399.28 982.38C1399.01 973.455 1398.33 964.506 1399.38 955.613Z"/>
	<path fill="white" transform="scale(0.332108 0.314315)" d="M1379.9 847.993L1388.16 955.264L1386.72 957.71L1317.31 957.803L1317.29 888.728C1321.66 888.741 1326.72 889.159 1330.96 888.095C1343.67 884.911 1355.52 872.268 1364.59 863.416L1379.9 847.993Z"/>
	<path fill="white" transform="scale(0.332108 0.314315)" d="M1388.16 955.264L1390.67 977.824L1396.13 1024.9C1396.77 1030.28 1396.71 1038.13 1398.93 1042.9L1402.83 1045.55C1404.25 1042.2 1402.43 1037.41 1402.42 1033.8L1418.03 1029.57C1422.48 1036.91 1416.92 1058.72 1415.62 1067.54L1407.46 1125.5L1317.3 1125.2L1317.31 977.94L1317.31 957.803L1386.72 957.71L1388.16 955.264Z"/>
	<path fill="#F3F3F3" transform="scale(0.332108 0.314315)" d="M1388.16 955.264L1390.67 977.824L1317.31 977.94L1317.31 957.803L1386.72 957.71L1388.16 955.264Z"/>
	<path fill="rgb(254, 148, 0)" transform="scale(0.332108 0.314315)" d="M1317.3 1125.2L1407.46 1125.5L1357.78 1530.69L1317.89 1530.89L1246.82 1530.89L1031.41 1531.04L679.915 1531L490.466 1530.9C486.71 1530.82 485.447 1530.83 482.042 1528.87C482.326 1506.84 482.99 1484.79 487.789 1463.18L496.382 1472.74L497.99 1471.77C511.682 1463.33 515.677 1453.88 519.177 1438.83C519.979 1441.39 520.755 1445.08 522.369 1447.24C526.925 1453.34 535.88 1454.03 542.836 1455.03C542.802 1471.61 539.128 1491.97 551.971 1504.62C556.725 1509.31 563.393 1511.92 569.988 1512.55C583.257 1513.83 597.691 1512.74 611.054 1512.74L695.801 1512.72L969.62 1512.72L1082.29 1512.71L1228.09 1512.75L1269.95 1512.73C1277.07 1512.71 1284.98 1513.36 1292 1512.32C1298.36 1511.38 1304.11 1508.55 1308.73 1504.06C1313.3 1499.61 1316.12 1493.14 1317.04 1486.9C1318.56 1476.53 1317.35 1464.27 1317.33 1453.74L1317.27 1380.76L1317.3 1125.2Z"/>
	<path fill="white" transform="scale(0.332108 0.314315)" d="M969.62 1512.72L1082.29 1512.71C1085.33 1520.1 1088.74 1523.87 1095.4 1528.26L1096.56 1529.02C1092.81 1529.76 1088.46 1529.33 1084.63 1529.33L1060.73 1529.32L969.689 1529.44C968.759 1524.42 969.544 1517.89 969.62 1512.72Z"/>
	<path fill="white" transform="scale(0.332108 0.314315)" d="M1191.67 859.751L1191.5 868.652C1186.46 871.24 716.786 869.484 668.102 869.473L668.068 779.79L1191.69 779.698L1191.77 826.931L1190.55 827.475C1183.11 830.685 1173.78 832.084 1165.93 834.403L1179.62 860.195C1183.4 860.892 1187.84 860.065 1191.67 859.751Z"/>
	<path fill="#fe9400" transform="scale(0.332108 0.314315)" d="M668.111 1411.99L668.195 1322.47L1191.66 1322.47L1191.62 1384.16C1191.62 1392.99 1190.51 1403.57 1192.03 1412.19L668.111 1411.99Z"/>
	<path fill="white" transform="scale(0.332108 0.314315)" d="M930.423 1358.89L933.121 1358.16L934.482 1359.38C934.571 1366.58 934.958 1373.93 934.082 1381.09L931.625 1381.54L930.352 1380.37L930.423 1358.89Z"/>
	<path fill="white" transform="scale(0.332108 0.314315)" d="M1018.17 1357.91L1020.16 1357.9L1021.38 1359.38L1020.7 1361.6C1019.06 1361.91 1017.58 1362.07 1016.24 1363.14C1011.62 1366.8 1013.01 1375.4 1012.57 1380.82L1010.25 1381.64L1008.58 1379.86C1008.52 1372.96 1007.82 1365.34 1008.99 1358.56L1011.72 1358.22L1013.11 1359.97L1018.17 1357.91Z"/>
	<path fill="white" transform="scale(0.332108 0.314315)" d="M965.59 1353.03C966.8 1352.88 967.913 1353.04 969.123 1353.14C970.277 1360.77 972.108 1355.6 975.959 1359.38C974.358 1362.99 972.612 1360.22 969.692 1362.79L969.967 1375.97L972.168 1377.75L976.074 1377.07L977.439 1379.39L976.715 1380.17C974.21 1382.06 972.554 1381.52 969.656 1381.35C961.796 1376.4 966.448 1369.63 964.355 1361.91L961.426 1361.05L961.153 1358.89L964.355 1357.55L965.59 1353.03Z"/>
	<path fill="white" transform="scale(0.332108 0.314315)" d="M879.999 1357.91C883.303 1357.33 886.655 1357.58 889.456 1359.62C893.008 1362.2 893.919 1365.46 894.4 1369.63L893.066 1371.18L876.465 1371.53L876.127 1373.54L879.248 1376.58C883.162 1378.03 885.266 1377.69 889.206 1376.48L890.403 1375.37L892.486 1377.44L891.187 1379.47C887.051 1381.54 883.158 1382.55 878.608 1380.98C875.802 1380.01 872.83 1377.53 871.725 1374.72C870.57 1371.78 870.611 1366.9 872.052 1364.05C873.851 1360.48 876.376 1359.21 879.999 1357.91Z"/>
	<path fill="#fe9400" transform="scale(0.332108 0.314315)" d="M880.507 1361.82C881.269 1361.68 882.047 1361.49 882.832 1361.57C886.32 1361.91 887.057 1363.26 889.253 1365.6L889.16 1367.61L885.254 1368.04L876.953 1367.92L875.799 1366.7C877.128 1363.9 877.926 1363.27 880.507 1361.82Z"/>
	<path fill="white" transform="scale(0.332108 0.314315)" d="M988.607 1357.91L991.114 1357.57C994.403 1357.4 997.264 1358.63 999.597 1360.92C1002.35 1363.62 1002.77 1366.41 1002.8 1370.12C999.704 1372.71 989.627 1370.87 984.946 1371.66C984.825 1374.33 985.538 1374.25 987.224 1376.18C991.764 1377.78 992.914 1377.53 997.704 1376.63L999.023 1375.26L1001.15 1377.44C1000.06 1379.07 999.818 1379.5 998.039 1380.34C994.383 1382.08 990.235 1382.26 986.488 1380.63C983.641 1379.39 981.17 1376.91 980.147 1373.95C979.07 1370.85 979.142 1366.68 980.771 1363.77C982.604 1360.49 985.183 1359.09 988.607 1357.91Z"/>
	<path fill="#fe9400" transform="scale(0.332108 0.314315)" d="M989.245 1361.82C990.022 1361.65 990.933 1361.41 991.729 1361.51C994.912 1361.92 995.972 1363.58 997.978 1365.72L997.7 1367.68L993.652 1368.05C990.571 1368.05 986.656 1368.82 984.415 1366.7C985.614 1363.86 986.702 1363.32 989.245 1361.82Z"/>
	<path fill="white" transform="scale(0.332108 0.314315)" d="M841.712 1350.52C848.086 1350.44 858.774 1349 863.689 1353.45C865.873 1355.43 866.804 1358.44 866.847 1361.33C866.91 1365.55 864.833 1368.05 861.841 1370.69L860.672 1371.69L866.767 1380.3L864.746 1381.66C860.386 1380.57 859.159 1376.18 856.039 1373.06C854.277 1371.3 851.086 1372.04 848.633 1372.04C845.357 1373.86 847.226 1377.7 845.993 1381.18L843.262 1381.65L841.799 1380.37L841.712 1350.52Z"/>
	<path fill="#007DFF" transform="scale(0.332108 0.314315)" d="M847.089 1354.98C849.467 1354.45 852.556 1354.37 854.98 1354.57C858.255 1354.83 859.314 1356.08 861.446 1358.4C862.281 1362.18 861.94 1362.37 860.381 1365.72C859.156 1366.57 857.943 1367.39 856.451 1367.68C853.602 1368.23 849.492 1368.65 846.913 1367.16C846.593 1363 846.692 1359.14 847.089 1354.98Z"/>
	<path fill="white" transform="scale(0.332108 0.314315)" d="M906.91 1357.91C910.672 1357.4 912.877 1357.87 916.273 1359.44L917.149 1359.86C918.315 1358.72 918.911 1358.53 920.41 1357.99L922.259 1358.89C922.322 1365.43 924.252 1381.9 919.794 1386.63C917.225 1389.36 913.439 1390.4 909.758 1390.25C905.767 1390.09 901.981 1389.22 899.32 1386.23L900.879 1383.63L906.189 1385.47C909.887 1386.49 912.206 1386.32 915.652 1384.4C917.219 1381.82 917.484 1381.28 917.58 1378.28L915.527 1378.95C911.469 1380.44 908.6 1381.12 904.389 1379.41C901.409 1378.21 899.627 1376.13 898.482 1373.17C897.135 1369.67 897.29 1366.48 899.161 1363.19C900.937 1360.07 903.624 1358.89 906.91 1357.91Z"/>
	<path fill="#007DFF" transform="scale(0.332108 0.314315)" d="M908.371 1361.82C911.604 1361.46 912.763 1362.12 915.527 1363.57C917.458 1366.51 917.537 1367.25 917.808 1370.61C916.089 1373.7 915.618 1374.17 912.598 1376.02C909.108 1376.32 907.841 1376.28 904.785 1374.57C902.594 1371.5 902.686 1370.81 902.458 1367.19C904.509 1363.72 904.951 1363.53 908.371 1361.82Z"/>
	<path fill="white" transform="scale(0.332108 0.314315)" d="M997.767 1146.98L1191.69 1146.96L1191.72 1236.7L865.723 1236.72L668.103 1236.74L668.091 1147.06L997.767 1146.98Z"/>
	<path fill="white" transform="scale(0.332108 0.314315)" d="M668.129 1024.45L1191.67 1024.45L1191.7 1114.26L668.127 1114.25L668.129 1024.45Z"/>
	<path fill="white" transform="scale(0.332108 0.314315)" d="M668.088 902.185L1191.69 902.067L1191.7 992.084L668.136 992.091L668.088 902.185Z"/>
</svg>
