<svg width="0" height="0" class="hidden">  
  <defs>
   <symbol xmlns="http://www.w3.org/2000/svg"  id="icon-menu" viewBox="0 0 510 511">
    <path  fill-rule="evenodd" d="M156 181H356V166H156V181zM228.983 256.352L355.999 256 355.957 241 228.941 241.352 228.983 256.352zM155.996 331H355.996V316H155.996V331z" clip-rule="evenodd"></path>
  </symbol>
  <symbol xmlns="http://www.w3.org/2000/svg" id="icon-driver" viewBox="0 0 48 48">
    <path fill-rule="evenodd" d="m37.47,24.13l-3.2,1.6c.41,1.02.66,2.12.71,3.27h-.99c-1.83,0-2.74-.47-3.88-.93-1.33-.53-2.93-1.07-6.12-1.07s-4.79.54-6.12,1.07c-1.14.46-2.05.93-3.88.93h-.99c.05-1.07.27-2.1.63-3.06l-3.2-1.6c-.61,1.6-.95,3.34-.95,5.16,0,8,6.5,14.5,14.5,14.5s14.5-6.5,14.5-14.5c0-1.9-.36-3.71-1.03-5.37h0Zm-22.87,10.84c1.25,1.96,3.14,3.5,5.4,4.35v-1.8c-1.25-.93-2.14-2.01-2.65-3.25l-2.75.7h0Zm18.8,0c-.5-.13-2.75-.7-2.75-.7-.51,1.24-1.4,2.32-2.65,3.25v1.8c2.26-.85,4.15-2.39,5.4-4.35h0Zm-9.4-4.97c-1.66,0-3,1.34-3,3s1.34,3,3,3,3-1.34,3-3-1.34-3-3-3h0Zm0,2c.55,0,1,.45,1,1s-.45,1-1,1-1-.45-1-1,.45-1,1-1h0Zm-1.55-5.61s.77-.39,1.55-.39,1.55.39,1.55.39c.49.25,1.1.05,1.34-.45.25-.49.05-1.1-.45-1.34,0,0-1.23-.61-2.45-.61s-2.45.61-2.45.61c-.49.25-.69.85-.45,1.34.25.49.85.69,1.34.45h0Zm-11.16-3.87l3.24,1.62c1.91-3.1,5.44-5.19,9.47-5.19s7.41,2,9.35,5l3.25-1.62c-2.5-4.38-7.21-7.33-12.6-7.33s-10.25,3.04-12.71,7.53h0Zm9.16,1.37s1.77-.89,3.55-.89,3.55.89,3.55.89c.49.25,1.1.05,1.34-.45.25-.49.05-1.1-.45-1.34,0,0-2.23-1.11-4.45-1.11s-4.45,1.11-4.45,1.11c-.49.25-.69.85-.45,1.34.25.49.85.69,1.34.45h0Zm-9.32-4.57s.27-.83.82-1.38c.55-.55,1.38-.82,1.38-.82.52-.17.81-.74.63-1.26-.18-.52-.74-.81-1.27-.63,0,0-1.29.44-2.16,1.3-.87.86-1.3,2.16-1.3,2.16-.18.52.11,1.09.63,1.27.52.17,1.09-.11,1.26-.63h0Zm27.64-.63s-.44-1.29-1.3-2.16c-.86-.87-2.16-1.3-2.16-1.3-.52-.18-1.09.11-1.27.63-.17.52.11,1.09.63,1.26,0,0,.83.27,1.38.82.55.55.82,1.38.82,1.38.17.52.74.81,1.26.63.52-.18.81-.74.63-1.27h0Zm3.18-.35s-.79-2.35-2.36-3.93c-1.57-1.57-3.93-2.36-3.93-2.36-.52-.18-1.09.11-1.27.63-.17.52.11,1.09.63,1.26,0,0,1.89.62,3.15,1.88,1.26,1.26,1.88,3.15,1.88,3.15.17.52.74.81,1.26.63s.81-.74.63-1.27h0Zm-34,.63s.62-1.89,1.88-3.15c1.26-1.26,3.15-1.88,3.15-1.88.52-.17.81-.74.63-1.26-.17-.52-.74-.81-1.27-.63,0,0-2.35.79-3.93,2.36-1.57,1.57-2.36,3.93-2.36,3.93-.18.52.11,1.09.63,1.27.52.17,1.09-.11,1.26-.63h0Zm15.44-5.19c.36.28.87.28,1.23,0,0,0,1.2-.93,2.15-2.31.69-.99,1.23-2.21,1.23-3.47,0-2.21-1.79-4-4-4s-4,1.79-4,4c0,1.26.55,2.48,1.23,3.47.95,1.38,2.15,2.31,2.15,2.31h0Zm.62-6.79c.55,0,1,.45,1,1s-.45,1-1,1-1-.45-1-1,.45-1,1-1h0Z"></path>
  </symbol>
  </defs>
</svg>