<svg width="0" height="0" class="hidden">
  <defs>
    <symbol xmlns="http://www.w3.org/2000/svg" id="icon-menu" viewBox="0 0 510 511">
      <path fill-rule="evenodd"
        d="M156 181H356V166H156V181zM228.983 256.352L355.999 256 355.957 241 228.941 241.352 228.983 256.352zM155.996 331H355.996V316H155.996V331z"
        clip-rule="evenodd"></path>
    </symbol>
    <symbol xmlns="http://www.w3.org/2000/svg" id="icon-driver" viewBox="0 0 48 48">
      <path fill-rule="evenodd"
        d="m37.47,24.13l-3.2,1.6c.41,1.02.66,2.12.71,3.27h-.99c-1.83,0-2.74-.47-3.88-.93-1.33-.53-2.93-1.07-6.12-1.07s-4.79.54-6.12,1.07c-1.14.46-2.05.93-3.88.93h-.99c.05-1.07.27-2.1.63-3.06l-3.2-1.6c-.61,1.6-.95,3.34-.95,5.16,0,8,6.5,14.5,14.5,14.5s14.5-6.5,14.5-14.5c0-1.9-.36-3.71-1.03-5.37h0Zm-22.87,10.84c1.25,1.96,3.14,3.5,5.4,4.35v-1.8c-1.25-.93-2.14-2.01-2.65-3.25l-2.75.7h0Zm18.8,0c-.5-.13-2.75-.7-2.75-.7-.51,1.24-1.4,2.32-2.65,3.25v1.8c2.26-.85,4.15-2.39,5.4-4.35h0Zm-9.4-4.97c-1.66,0-3,1.34-3,3s1.34,3,3,3,3-1.34,3-3-1.34-3-3-3h0Zm0,2c.55,0,1,.45,1,1s-.45,1-1,1-1-.45-1-1,.45-1,1-1h0Zm-1.55-5.61s.77-.39,1.55-.39,1.55.39,1.55.39c.49.25,1.1.05,1.34-.45.25-.49.05-1.1-.45-1.34,0,0-1.23-.61-2.45-.61s-2.45.61-2.45.61c-.49.25-.69.85-.45,1.34.25.49.85.69,1.34.45h0Zm-11.16-3.87l3.24,1.62c1.91-3.1,5.44-5.19,9.47-5.19s7.41,2,9.35,5l3.25-1.62c-2.5-4.38-7.21-7.33-12.6-7.33s-10.25,3.04-12.71,7.53h0Zm9.16,1.37s1.77-.89,3.55-.89,3.55.89,3.55.89c.49.25,1.1.05,1.34-.45.25-.49.05-1.1-.45-1.34,0,0-2.23-1.11-4.45-1.11s-4.45,1.11-4.45,1.11c-.49.25-.69.85-.45,1.34.25.49.85.69,1.34.45h0Zm-9.32-4.57s.27-.83.82-1.38c.55-.55,1.38-.82,1.38-.82.52-.17.81-.74.63-1.26-.18-.52-.74-.81-1.27-.63,0,0-1.29.44-2.16,1.3-.87.86-1.3,2.16-1.3,2.16-.18.52.11,1.09.63,1.27.52.17,1.09-.11,1.26-.63h0Zm27.64-.63s-.44-1.29-1.3-2.16c-.86-.87-2.16-1.3-2.16-1.3-.52-.18-1.09.11-1.27.63-.17.52.11,1.09.63,1.26,0,0,.83.27,1.38.82.55.55.82,1.38.82,1.38.17.52.74.81,1.26.63.52-.18.81-.74.63-1.27h0Zm3.18-.35s-.79-2.35-2.36-3.93c-1.57-1.57-3.93-2.36-3.93-2.36-.52-.18-1.09.11-1.27.63-.17.52.11,1.09.63,1.26,0,0,1.89.62,3.15,1.88,1.26,1.26,1.88,3.15,1.88,3.15.17.52.74.81,1.26.63s.81-.74.63-1.27h0Zm-34,.63s.62-1.89,1.88-3.15c1.26-1.26,3.15-1.88,3.15-1.88.52-.17.81-.74.63-1.26-.17-.52-.74-.81-1.27-.63,0,0-2.35.79-3.93,2.36-1.57,1.57-2.36,3.93-2.36,3.93-.18.52.11,1.09.63,1.27.52.17,1.09-.11,1.26-.63h0Zm15.44-5.19c.36.28.87.28,1.23,0,0,0,1.2-.93,2.15-2.31.69-.99,1.23-2.21,1.23-3.47,0-2.21-1.79-4-4-4s-4,1.79-4,4c0,1.26.55,2.48,1.23,3.47.95,1.38,2.15,2.31,2.15,2.31h0Zm.62-6.79c.55,0,1,.45,1,1s-.45,1-1,1-1-.45-1-1,.45-1,1-1h0Z"></path>
    </symbol>
    <symbol xmlns="http://www.w3.org/2000/svg" fill='red' id="icon-close" viewBox="0 0 512 512">
      <path
        d="M437.5 386.6L306.9 256l130.6-130.6c14.1-14.1 14.1-36.8 0-50.9-14.1-14.1-36.8-14.1-50.9 0L256 205.1 125.4 74.5c-14.1-14.1-36.8-14.1-50.9 0-14.1 14.1-14.1 36.8 0 50.9L205.1 256 74.5 386.6c-14.1 14.1-14.1 36.8 0 50.9 14.1 14.1 36.8 14.1 50.9 0L256 306.9l130.6 130.6c14.1 14.1 36.8 14.1 50.9 0 14-14.1 14-36.9 0-50.9z"
        fill='red'></path>
    </symbol>
    <symbol xmlns="http://www.w3.org/2000/svg" viewBox="0 0 70 60" id="icon-message-solid">
      <rect width="70" height="60" rx="10" fill="#f46524"></rect>
      <path
        d="M.072,27.036V6.3q0-.036.108-.684l12.2,10.44L.216,27.756a3.051,3.051,0,0,1-.144-.72Zm1.62-22.86A1.551,1.551,0,0,1,2.3,4.068H35.172a2.039,2.039,0,0,1,.648.108L23.58,14.652l-1.62,1.3-3.2,2.628-3.2-2.628-1.62-1.3ZM1.728,29.16,14,17.388l4.752,3.852,4.752-3.852L35.784,29.16a1.729,1.729,0,0,1-.612.108H2.3a1.631,1.631,0,0,1-.576-.108Zm23.4-13.1L37.3,5.616A2.149,2.149,0,0,1,37.4,6.3V27.036a2.759,2.759,0,0,1-.108.72Z"
        transform="translate(15.928 12.932)" fill="#fff"></path>
    </symbol>
    <symbol xmlns="http://www.w3.org/2000/svg" viewBox="0 0 70 60" id="icon-calling">
      <rect id="Background" width="70" height="60" rx="10" transform="translate(0.303)"
        fill="#f46524"></rect>
      <path id="Icon_awesome-phone-volume"
        d="M6.844,35.646a23.363,23.363,0,0,1,0-33.042,1.209,1.209,0,0,1,1.5-.17L12.9,5.282a1.208,1.208,0,0,1,.482,1.474l-2.279,5.7a1.209,1.209,0,0,1-1.242.754l-3.924-.392a18.677,18.677,0,0,0,0,12.622l3.924-.392A1.209,1.209,0,0,1,11.1,25.8l2.279,5.7a1.209,1.209,0,0,1-.482,1.474L8.339,35.816a1.209,1.209,0,0,1-1.5-.17ZM17.376,6.713a4.5,4.5,0,0,1,0,4.574.847.847,0,0,1-1.316.181l-.42-.4a.85.85,0,0,1-.159-1.013,2.254,2.254,0,0,0,0-2.106.85.85,0,0,1,.159-1.013l.42-.4a.847.847,0,0,1,1.316.181ZM23.83.3a13.519,13.519,0,0,1,0,17.4.847.847,0,0,1-1.234.066l-.408-.391a.845.845,0,0,1-.065-1.152,11.266,11.266,0,0,0,0-14.444A.845.845,0,0,1,22.188.626L22.6.236A.847.847,0,0,1,23.83.3ZM20.6,3.461a9.013,9.013,0,0,1,0,11.077.848.848,0,0,1-1.256.092l-.409-.392a.843.843,0,0,1-.09-1.12,6.759,6.759,0,0,0,0-8.236.843.843,0,0,1,.09-1.12l.409-.392a.848.848,0,0,1,1.256.092Z"
        transform="translate(22.302 12)" fill="#fff"></path>
    </symbol>
    <symbol xmlns="http://www.w3.org/2000/svg" enable-background="new 0 0 24 24"
      id="icon-arrow-down-left" viewBox="0 0 24 24">
      <path
        d="M17,16H9.4l8.3-8.3c0.4-0.4,0.4-1,0-1.4c-0.4-0.4-1-0.4-1.4,0L8,14.6V7c0-0.6-0.4-1-1-1S6,6.4,6,7v10c0,0.1,0,0.3,0.1,0.4
    c0.1,0.2,0.3,0.4,0.5,0.5C6.7,18,6.9,18,7,18h10c0.6,0,1-0.4,1-1S17.6,16,17,16z"></path>
    </symbol>
    <symbol xmlns="http://www.w3.org/2000/svg" viewBox="0 0 448 512" id="icon-arrow-right">
      <path
        d="M438.6 278.6c12.5-12.5 12.5-32.8 0-45.3l-160-160c-12.5-12.5-32.8-12.5-45.3 0s-12.5 32.8 0 45.3L338.8 224 32 224c-17.7 0-32 14.3-32 32s14.3 32 32 32l306.7 0L233.4 393.4c-12.5 12.5-12.5 32.8 0 45.3s32.8 12.5 45.3 0l160-160z"></path>
    </symbol>
    <symbol xmlns="http://www.w3.org/2000/svg" viewBox="0 0 488 512" id="icon-google">
      <path
        d="M488 261.8C488 403.3 391.1 504 248 504 110.8 504 0 393.2 0 256S110.8 8 248 8c66.8 0 123 24.5 166.3 64.9l-67.5 64.9C258.5 52.6 94.3 116.6 94.3 256c0 86.5 69.1 156.6 153.7 156.6 98.2 0 135-70.4 140.8-106.9H248v-85.3h236.1c2.3 12.7 3.9 24.9 3.9 41.4z"></path>
    </symbol>
    <symbol xmlns="http://www.w3.org/2000/svg" id="icon-eye-open" viewBox="0 0 36 24">
      <g fill="#1D1D1B" fill-rule="nonzero">
        <path
          d="M18 4c4.446 0 8.92 2.754 13.048 8-4.127 5.246-8.602 8-13.048 8s-8.92-2.754-13.048-8C9.079 6.754 13.554 4 18 4zm0-4C11.725 0 5.45 4 0 12v3-3c5.45 8 11.725 12 18 12s12.55-4 18-12v3-3C30.55 4 24.275 0 18 0z"></path>
        <circle cx="18" cy="12" r="4"></circle>
      </g>
    </symbol>
    <symbol xmlns="http://www.w3.org/2000/svg" id="icon-eye-close" viewBox="0 0 24 24">
      <path fill="none" d="M0 0h24v24H0V0zm0 0h24v24H0V0zm0 0h24v24H0V0zm0 0h24v24H0V0z"></path>
      <path
        d="M12 6.5c2.76 0 5 2.24 5 5 0 .51-.1 1-.24 1.46l3.06 3.06c1.39-1.23 2.49-2.77 3.18-4.53C21.27 7.11 17 4 12 4c-1.27 0-2.49.2-3.64.57l2.17 2.17c.47-.14.96-.24 1.47-.24zM2.71 3.16c-.39.39-.39 1.02 0 1.41l1.97 1.97C3.06 7.83 1.77 9.53 1 11.5 2.73 15.89 7 19 12 19c1.52 0 2.97-.3 4.31-.82l2.72 2.72c.39.39 1.02.39 1.41 0 .39-.39.39-1.02 0-1.41L4.13 3.16c-.39-.39-1.03-.39-1.42 0zM12 16.5c-2.76 0-5-2.24-5-5 0-.77.18-1.5.49-2.14l1.57 1.57c-.03.18-.06.37-.06.57 0 1.66 1.34 3 3 3 .2 0 .38-.03.57-.07L14.14 16c-.65.32-1.37.5-2.14.5zm2.97-5.33c-.15-1.4-1.25-2.49-2.64-2.64l2.64 2.64z"></path>
    </symbol>
    <symbol fill="none" xmlns="http://www.w3.org/2000/svg" viewBox="0 0 24 24" id="icon-dashboard">
      <path id="Vector" d="M12 18V15" stroke="#f88d06" stroke-width="1.5" stroke-linecap="round"
        stroke-linejoin="round"></path>
      <path id="Vector_2"
        d="M10.07 2.81997L3.14002 8.36997C2.36002 8.98997 1.86002 10.3 2.03002 11.28L3.36002 19.24C3.60002 20.66 4.96002 21.81 6.40002 21.81H17.6C19.03 21.81 20.4 20.65 20.64 19.24L21.97 11.28C22.13 10.3 21.63 8.98997 20.86 8.36997L13.93 2.82997C12.86 1.96997 11.13 1.96997 10.07 2.81997Z"
        stroke="#f88d06" stroke-width="1.5" stroke-linecap="round" stroke-linejoin="round"></path>
    </symbol>
    <symbol fill="none" xmlns="http://www.w3.org/2000/svg" viewBox="0 0 24 24" id="icon-user">
      <path id="Vector"
        d="M12 12C14.7614 12 17 9.76142 17 7C17 4.23858 14.7614 2 12 2C9.23858 2 7 4.23858 7 7C7 9.76142 9.23858 12 12 12Z"
        stroke="#f88d06" stroke-width="1.5" stroke-linecap="round" stroke-linejoin="round"></path>
      <path id="Vector_2"
        d="M20.59 22C20.59 18.13 16.74 15 12 15C7.26003 15 3.41003 18.13 3.41003 22"
        stroke="#f88d06" stroke-width="1.5" stroke-linecap="round" stroke-linejoin="round"></path>
    </symbol>
    <symbol fill="none" xmlns="http://www.w3.org/2000/svg" viewBox="0 0 25 24" id="icon-manage">
      <path id="Vector"
        d="M22.2941 10.44L21.3141 14.62C20.4741 18.23 18.8141 19.69 15.6941 19.39C15.1941 19.35 14.6541 19.26 14.0741 19.12L12.3941 18.72C8.22409 17.73 6.93409 15.67 7.91409 11.49L8.89409 7.30001C9.09409 6.45001 9.33409 5.71001 9.63409 5.10001C10.8041 2.68001 12.7941 2.03001 16.1341 2.82001L17.8041 3.21001C21.9941 4.19001 23.2741 6.26001 22.2941 10.44Z"
        stroke="#f88d06" stroke-width="1.5" stroke-linecap="round" stroke-linejoin="round"></path>
      <path id="Vector_2"
        d="M15.6941 19.3901C15.0741 19.8101 14.2941 20.1601 13.3441 20.4701L11.7641 20.9901C7.79407 22.2701 5.70407 21.2001 4.41407 17.2301L3.13407 13.2801C1.85407 9.3101 2.91407 7.2101 6.88407 5.9301L8.46407 5.4101C8.87407 5.2801 9.26407 5.1701 9.63407 5.1001C9.33407 5.7101 9.09407 6.4501 8.89407 7.3001L7.91407 11.4901C6.93407 15.6701 8.22407 17.7301 12.3941 18.7201L14.0741 19.1201C14.6541 19.2601 15.1941 19.3501 15.6941 19.3901Z"
        stroke="#f88d06" stroke-width="1.5" stroke-linecap="round" stroke-linejoin="round"></path>
      <path id="Vector_3" d="M13.2741 8.52979L18.1241 9.75979" stroke="#f88d06" stroke-width="1.5"
        stroke-linecap="round" stroke-linejoin="round"></path>
      <path id="Vector_4" d="M12.2941 12.3999L15.1941 13.1399" stroke="#f88d06" stroke-width="1.5"
        stroke-linecap="round" stroke-linejoin="round"></path>
    </symbol>
    <symbol fill="none" xmlns="http://www.w3.org/2000/svg" viewBox="0 0 24 24" id="icon-report">
      <path id="Vector" d="M2 22H22" stroke="#f88d06" stroke-width="1.5" stroke-miterlimit="10"
        stroke-linecap="round" stroke-linejoin="round"></path>
      <path id="Vector_2"
        d="M9.75 4V22H14.25V4C14.25 2.9 13.8 2 12.45 2H11.55C10.2 2 9.75 2.9 9.75 4Z"
        stroke="#f88d06" stroke-width="1.5" stroke-linecap="round" stroke-linejoin="round"></path>
      <path id="Vector_3" d="M3 10V22H7V10C7 8.9 6.6 8 5.4 8H4.6C3.4 8 3 8.9 3 10Z" stroke="#f88d06"
        stroke-width="1.5" stroke-linecap="round" stroke-linejoin="round"></path>
      <path id="Vector_4" d="M17 15V22H21V15C21 13.9 20.6 13 19.4 13H18.6C17.4 13 17 13.9 17 15Z"
        stroke="#f88d06" stroke-width="1.5" stroke-linecap="round" stroke-linejoin="round"></path>
    </symbol>
    <symbol fill="none" xmlns="http://www.w3.org/2000/svg" viewBox="0 0 24 24" id="icon-logout">
      <path id="Vector"
        d="M8.90002 7.56023C9.21002 3.96023 11.06 2.49023 15.11 2.49023H15.24C19.71 2.49023 21.5 4.28023 21.5 8.75023V15.2702C21.5 19.7402 19.71 21.5302 15.24 21.5302H15.11C11.09 21.5302 9.24002 20.0802 8.91002 16.5402"
        stroke="#BE0303" stroke-width="1.5" stroke-linecap="round" stroke-linejoin="round"></path>
      <path id="Vector_2" d="M15 12H3.62" stroke="#BE0303" stroke-width="1.5" stroke-linecap="round"
        stroke-linejoin="round"></path>
      <path id="Vector_3" d="M5.85 8.6499L2.5 11.9999L5.85 15.3499" stroke="#BE0303"
        stroke-width="1.5" stroke-linecap="round" stroke-linejoin="round"></path>
    </symbol>
    <symbol xmlns="http://www.w3.org/2000/svg" viewBox="0 0 576 512" id="icon-create">
      <path
        d="M112 48a48 48 0 1 1 96 0 48 48 0 1 1 -96 0zm40 304V480c0 17.7-14.3 32-32 32s-32-14.3-32-32V256.9L59.4 304.5c-9.1 15.1-28.8 20-43.9 10.9s-20-28.8-10.9-43.9l58.3-97c17.4-28.9 48.6-46.6 82.3-46.6h29.7c33.7 0 64.9 17.7 82.3 46.6l44.9 74.7c-16.1 17.6-28.6 38.5-36.6 61.5c-1.9-1.8-3.5-3.9-4.9-6.3L232 256.9V480c0 17.7-14.3 32-32 32s-32-14.3-32-32V352H152zM432 224a144 144 0 1 1 0 288 144 144 0 1 1 0-288zm16 80c0-8.8-7.2-16-16-16s-16 7.2-16 16v48H368c-8.8 0-16 7.2-16 16s7.2 16 16 16h48v48c0 8.8 7.2 16 16 16s16-7.2 16-16V384h48c8.8 0 16-7.2 16-16s-7.2-16-16-16H448V304z"></path>
    </symbol>
    <symbol xmlns="http://www.w3.org/2000/svg" viewBox="0 0 23 23" id="icon-settings">
      <path id="Path_47" d="M22.5,18A4.5,4.5,0,1,1,18,13.5,4.5,4.5,0,0,1,22.5,18Z"
        transform="translate(-6.5 -6.5)" fill="none" stroke="#f88d06" stroke-linecap="round"
        stroke-linejoin="round" stroke-width="3"></path>
      <path id="Path_48"
        d="M18.227,14.227a1.5,1.5,0,0,0,.3,1.655l.055.055a1.819,1.819,0,1,1-2.573,2.573l-.055-.055a1.512,1.512,0,0,0-2.564,1.073v.155a1.818,1.818,0,1,1-3.636,0V19.6a1.5,1.5,0,0,0-.982-1.373,1.5,1.5,0,0,0-1.655.3l-.055.055a1.819,1.819,0,1,1-2.573-2.573l.055-.055a1.512,1.512,0,0,0-1.073-2.564H3.318a1.818,1.818,0,0,1,0-3.636H3.4a1.5,1.5,0,0,0,1.373-.982,1.5,1.5,0,0,0-.3-1.655l-.055-.055A1.819,1.819,0,1,1,6.991,4.491l.055.055a1.5,1.5,0,0,0,1.655.3h.073a1.5,1.5,0,0,0,.909-1.373V3.318a1.818,1.818,0,0,1,3.636,0V3.4a1.512,1.512,0,0,0,2.564,1.073l.055-.055a1.819,1.819,0,1,1,2.573,2.573l-.055.055a1.5,1.5,0,0,0-.3,1.655v.073a1.5,1.5,0,0,0,1.373.909h.155a1.818,1.818,0,0,1,0,3.636H19.6a1.5,1.5,0,0,0-1.373.909Z"
        fill="none" stroke="#f88d06" stroke-linecap="round" stroke-linejoin="round" stroke-width="3"></path>
    </symbol>
    <symbol fill="none" xmlns="http://www.w3.org/2000/svg" viewBox="0 0 21 20" id="icon-dotted-menu">
      <path
        d="M10.4999 2.5C9.58325 2.5 8.83325 3.25 8.83325 4.16667C8.83325 5.08333 9.58325 5.83333 10.4999 5.83333C11.4166 5.83333 12.1666 5.08333 12.1666 4.16667C12.1666 3.25 11.4166 2.5 10.4999 2.5ZM10.4999 14.1667C9.58325 14.1667 8.83325 14.9167 8.83325 15.8333C8.83325 16.75 9.58325 17.5 10.4999 17.5C11.4166 17.5 12.1666 16.75 12.1666 15.8333C12.1666 14.9167 11.4166 14.1667 10.4999 14.1667ZM10.4999 8.33333C9.58325 8.33333 8.83325 9.08333 8.83325 10C8.83325 10.9167 9.58325 11.6667 10.4999 11.6667C11.4166 11.6667 12.1666 10.9167 12.1666 10C12.1666 9.08333 11.4166 8.33333 10.4999 8.33333Z"
        fill="currentColor"></path>
    </symbol>
    <symbol xmlns="http://www.w3.org/2000/svg" viewBox="0 0 448 512" id="icon-plus">
      <path
        d="M256 80c0-17.7-14.3-32-32-32s-32 14.3-32 32V224H48c-17.7 0-32 14.3-32 32s14.3 32 32 32H192V432c0 17.7 14.3 32 32 32s32-14.3 32-32V288H400c17.7 0 32-14.3 32-32s-14.3-32-32-32H256V80z">
      </path>
    </symbol>
    <symbol xmlns="http://www.w3.org/2000/svg" viewBox="0 0 384 512" id="icon-map-pin">
      <path
        d="M215.7 499.2C267 435 384 279.4 384 192C384 86 298 0 192 0S0 86 0 192c0 87.4 117 243 168.3 307.2c12.3 15.3 35.1 15.3 47.4 0zM192 128a64 64 0 1 1 0 128 64 64 0 1 1 0-128z"></path>
    </symbol>
  </defs>
</svg>