<?xml version="1.0" encoding="utf-8"?>
<svg xmlns="http://www.w3.org/2000/svg" xmlns:xlink="http://www.w3.org/1999/xlink" width="500"
	height="500">
	<path fill="#f46524"
		d="M245.214 87.356C248.548 86.9724 252.424 87.2936 255.74 87.7003C267.536 89.1468 278.691 93.1683 288.163 100.46C299.105 108.883 307.58 120.405 311.483 133.717C312.627 137.618 313.258 141.602 313.763 145.63C315.762 161.556 310.865 179.308 300.911 191.918C289.07 206.918 272.753 215.084 253.977 217.255C249.341 217.461 244.525 217.418 239.925 216.762C228.517 215.136 217.131 210.021 208.226 202.775C195.417 192.353 186.133 176.042 184.596 159.5C184.155 154.753 184.008 149.744 184.541 145C185.974 132.235 191.915 119.725 200.148 109.967C205.929 103.114 214.297 96.756 222.413 93.0505C229.264 89.9228 237.732 88.0056 245.214 87.356Z" />
	<path fill="#f46524"
		d="M218.826 242.635L268.657 242.405L300.798 243.013C305.49 243.251 310.275 243.344 314.904 244.194C323.662 245.803 332.002 249.044 339.742 253.442C357.618 263.6 371.064 280.834 376.481 300.691C377.892 305.86 378.751 311.599 379.139 316.937C379.849 326.715 379.472 336.692 379.613 346.5L379.764 370.625C379.765 375.66 379.949 380.823 379.456 385.833C379.315 387.266 378.857 388.616 378.125 389.853C376.209 393.093 373.251 395.2 369.582 396.016L369.125 396.112C365.858 396.82 362.085 396.478 358.745 396.478L342.4 396.479L278.375 396.474L180.111 396.472L148.643 396.481C143.268 396.481 137.685 396.781 132.338 396.401C129.701 396.213 127.17 395.853 124.841 394.505C122.216 392.985 119.77 390.09 119.012 387.127L118.922 386.762C118.161 383.943 118.395 380.67 118.386 377.756L118.366 365.166L118.651 332.169L119.192 320.125C119.368 316.465 119.407 312.913 119.961 309.276C122.389 293.339 130.811 277.515 142.191 266.161C153.492 254.885 168.739 246.448 184.626 243.965C188.034 243.432 191.475 243.324 194.912 243.128L218.826 242.635Z" />
</svg>